<svg width="612" height="792" xmlns="http://www.w3.org/2000/svg">
 <defs>
  <pattern viewBox="2.125 -70.896 69 69" id="Polka_Dot_Pattern" patternUnits="userSpaceOnUse" height="69" width="69" y="792">
   <g id="svg_1">
    <rect id="svg_2" height="69" width="69" fill="none" y="-70.896" x="2.125"/>
    <rect id="svg_3" height="69" width="69" fill="#F7BC60" y="-70.896" x="2.125"/>
    <g id="svg_4">
     <path id="svg_5" d="m61.772,-71.653c0.018,0.072 0.007,0.127 -0.026,0.19c-0.053,0.101 -0.112,0.062 -0.165,0.128c-0.05,0.062 -0.099,0.276 -0.079,0.362c-0.169,0.058 -0.01,0.227 -0.015,0.35c-0.002,0.05 -0.041,0.105 -0.045,0.161c-0.01,0.119 0.017,0.266 0.068,0.37c0.097,0.198 0.268,0.413 0.435,0.544c0.19,0.148 0.365,0.572 0.608,0.631c0.177,0.042 0.384,-0.104 0.543,-0.143c0.18,-0.043 0.397,0.01 0.571,-0.053c0.222,-0.079 0.127,-0.337 0.288,-0.45c0.104,-0.074 0.287,-0.01 0.406,-0.051c0.2,-0.069 0.339,-0.263 0.376,-0.46c0.016,-0.082 0.01,-0.145 0.039,-0.221c0.038,-0.103 0.111,-0.16 0.09,-0.293c-0.01,-0.062 -0.052,-0.12 -0.065,-0.187c-0.022,-0.114 0.002,-0.224 0.001,-0.337c-0.003,-0.2 0.017,-0.379 -0.078,-0.55c-0.38,-0.688 -1.236,-0.929 -1.975,-0.789c-0.18,0.034 -0.287,0.126 -0.442,0.207c-0.17,0.088 -0.139,0.166 -0.318,0.224c-0.081,0.026 -0.216,0.124 -0.215,0.224c0.002,0.115 0.005,0.051 0.012,0.169c-0.021,0.011 -0.022,-0.005 -0.03,-0.025" fill="#FFFFFF"/>
     <path id="svg_6" d="m54.105,-71.653c0.018,0.072 0.007,0.127 -0.026,0.19c-0.053,0.101 -0.112,0.062 -0.165,0.128c-0.05,0.062 -0.099,0.276 -0.079,0.362c-0.169,0.058 -0.01,0.227 -0.015,0.35c-0.002,0.05 -0.041,0.105 -0.045,0.161c-0.01,0.119 0.017,0.266 0.068,0.37c0.097,0.198 0.268,0.413 0.435,0.544c0.19,0.148 0.365,0.572 0.608,0.631c0.177,0.042 0.384,-0.104 0.543,-0.143c0.18,-0.043 0.397,0.01 0.571,-0.053c0.222,-0.079 0.127,-0.337 0.288,-0.45c0.104,-0.074 0.287,-0.01 0.406,-0.051c0.2,-0.069 0.339,-0.263 0.376,-0.46c0.016,-0.082 0.01,-0.145 0.039,-0.221c0.038,-0.103 0.111,-0.16 0.09,-0.293c-0.01,-0.062 -0.052,-0.12 -0.064,-0.187c-0.022,-0.114 0.002,-0.224 0,-0.337c-0.003,-0.2 0.017,-0.379 -0.078,-0.55c-0.38,-0.688 -1.236,-0.929 -1.975,-0.789c-0.18,0.034 -0.287,0.126 -0.442,0.207c-0.17,0.088 -0.139,0.166 -0.318,0.224c-0.081,0.026 -0.216,0.124 -0.215,0.224c0.002,0.115 0.005,0.051 0.012,0.169c-0.02,0.011 -0.021,-0.005 -0.03,-0.025" fill="#FFFFFF"/>
     <path id="svg_7" d="m46.439,-71.653c0.018,0.072 0.007,0.127 -0.026,0.19c-0.053,0.101 -0.112,0.062 -0.165,0.128c-0.05,0.062 -0.099,0.276 -0.079,0.362c-0.169,0.058 -0.01,0.227 -0.015,0.35c-0.002,0.05 -0.041,0.105 -0.045,0.161c-0.01,0.119 0.017,0.266 0.068,0.37c0.097,0.198 0.268,0.413 0.435,0.544c0.19,0.148 0.365,0.572 0.608,0.631c0.177,0.042 0.384,-0.104 0.543,-0.143c0.18,-0.043 0.397,0.01 0.571,-0.053c0.222,-0.079 0.127,-0.337 0.288,-0.45c0.104,-0.074 0.287,-0.01 0.406,-0.051c0.2,-0.069 0.339,-0.263 0.376,-0.46c0.016,-0.082 0.01,-0.145 0.039,-0.221c0.038,-0.103 0.111,-0.16 0.09,-0.293c-0.01,-0.062 -0.052,-0.12 -0.064,-0.187c-0.022,-0.114 0.002,-0.224 0,-0.337c-0.003,-0.2 0.017,-0.379 -0.078,-0.55c-0.38,-0.688 -1.236,-0.929 -1.975,-0.789c-0.18,0.034 -0.287,0.126 -0.442,0.207c-0.17,0.088 -0.139,0.166 -0.318,0.224c-0.081,0.026 -0.216,0.124 -0.215,0.224c0.002,0.115 0.005,0.051 0.012,0.169c-0.021,0.011 -0.022,-0.005 -0.03,-0.025" fill="#FFFFFF"/>
     <path id="svg_8" d="m38.772,-71.653c0.018,0.072 0.007,0.127 -0.026,0.19c-0.053,0.101 -0.112,0.062 -0.165,0.128c-0.05,0.062 -0.099,0.276 -0.079,0.362c-0.169,0.058 -0.01,0.227 -0.015,0.35c-0.002,0.05 -0.041,0.105 -0.045,0.161c-0.01,0.119 0.017,0.266 0.068,0.37c0.097,0.198 0.268,0.413 0.435,0.544c0.19,0.148 0.365,0.572 0.608,0.631c0.177,0.042 0.384,-0.104 0.543,-0.143c0.18,-0.043 0.397,0.01 0.571,-0.053c0.222,-0.079 0.127,-0.337 0.288,-0.45c0.104,-0.074 0.287,-0.01 0.406,-0.051c0.2,-0.069 0.339,-0.263 0.376,-0.46c0.016,-0.082 0.01,-0.145 0.039,-0.221c0.038,-0.103 0.111,-0.16 0.09,-0.293c-0.01,-0.062 -0.052,-0.12 -0.064,-0.187c-0.022,-0.114 0.002,-0.224 0,-0.337c-0.003,-0.2 0.017,-0.379 -0.078,-0.55c-0.38,-0.688 -1.236,-0.929 -1.975,-0.789c-0.18,0.034 -0.287,0.126 -0.442,0.207c-0.17,0.088 -0.139,0.166 -0.318,0.224c-0.081,0.026 -0.216,0.124 -0.215,0.224c0.002,0.115 0.005,0.051 0.012,0.169c-0.021,0.011 -0.022,-0.005 -0.03,-0.025" fill="#FFFFFF"/>
     <path id="svg_9" d="m31.105,-71.653c0.017,0.072 0.007,0.127 -0.026,0.19c-0.053,0.101 -0.112,0.062 -0.165,0.128c-0.05,0.062 -0.099,0.276 -0.079,0.362c-0.169,0.058 -0.01,0.227 -0.015,0.35c-0.002,0.05 -0.04,0.105 -0.045,0.161c-0.01,0.119 0.017,0.266 0.068,0.37c0.097,0.198 0.268,0.413 0.435,0.544c0.19,0.148 0.365,0.572 0.608,0.631c0.177,0.042 0.384,-0.104 0.543,-0.143c0.18,-0.043 0.397,0.01 0.571,-0.053c0.222,-0.079 0.127,-0.337 0.288,-0.45c0.104,-0.074 0.287,-0.01 0.406,-0.051c0.2,-0.069 0.339,-0.263 0.376,-0.46c0.016,-0.082 0.01,-0.145 0.039,-0.221c0.038,-0.103 0.111,-0.16 0.09,-0.293c-0.01,-0.062 -0.052,-0.12 -0.064,-0.187c-0.022,-0.114 0.002,-0.224 0,-0.337c-0.003,-0.2 0.017,-0.379 -0.078,-0.55c-0.38,-0.688 -1.236,-0.929 -1.975,-0.789c-0.18,0.034 -0.287,0.126 -0.442,0.207c-0.17,0.088 -0.139,0.166 -0.318,0.224c-0.081,0.026 -0.216,0.124 -0.215,0.224c0.001,0.115 0.005,0.051 0.012,0.169c-0.021,0.011 -0.021,-0.005 -0.03,-0.025" fill="#FFFFFF"/>
     <path id="svg_10" d="m23.439,-71.653c0.017,0.072 0.007,0.127 -0.026,0.19c-0.053,0.101 -0.112,0.062 -0.165,0.128c-0.05,0.062 -0.099,0.276 -0.079,0.362c-0.169,0.058 -0.01,0.227 -0.015,0.35c-0.002,0.05 -0.04,0.105 -0.045,0.161c-0.01,0.119 0.017,0.266 0.068,0.37c0.097,0.198 0.268,0.413 0.435,0.544c0.19,0.148 0.365,0.572 0.608,0.631c0.177,0.042 0.384,-0.104 0.543,-0.143c0.18,-0.043 0.397,0.01 0.571,-0.053c0.222,-0.079 0.127,-0.337 0.288,-0.45c0.104,-0.074 0.287,-0.01 0.406,-0.051c0.2,-0.069 0.339,-0.263 0.376,-0.46c0.016,-0.082 0.01,-0.145 0.039,-0.221c0.038,-0.103 0.111,-0.16 0.09,-0.293c-0.01,-0.062 -0.052,-0.12 -0.065,-0.187c-0.022,-0.114 0.002,-0.224 0,-0.337c-0.003,-0.2 0.017,-0.379 -0.078,-0.55c-0.38,-0.688 -1.236,-0.929 -1.975,-0.789c-0.18,0.034 -0.287,0.126 -0.442,0.207c-0.17,0.088 -0.139,0.166 -0.318,0.224c-0.081,0.026 -0.216,0.124 -0.215,0.224c0.001,0.115 0.005,0.051 0.012,0.169c-0.021,0.011 -0.021,-0.005 -0.03,-0.025" fill="#FFFFFF"/>
     <path id="svg_11" d="m15.773,-71.653c0.017,0.072 0.007,0.127 -0.026,0.19c-0.053,0.101 -0.112,0.062 -0.165,0.128c-0.05,0.062 -0.099,0.276 -0.079,0.362c-0.169,0.058 -0.01,0.227 -0.015,0.35c-0.002,0.05 -0.04,0.105 -0.045,0.161c-0.01,0.119 0.017,0.266 0.068,0.37c0.097,0.198 0.268,0.413 0.435,0.544c0.19,0.148 0.365,0.572 0.608,0.631c0.177,0.042 0.384,-0.104 0.543,-0.143c0.18,-0.043 0.397,0.01 0.571,-0.053c0.222,-0.079 0.127,-0.337 0.288,-0.45c0.104,-0.074 0.287,-0.01 0.406,-0.051c0.2,-0.069 0.339,-0.263 0.376,-0.46c0.016,-0.082 0.01,-0.145 0.039,-0.221c0.038,-0.103 0.111,-0.16 0.09,-0.293c-0.01,-0.062 -0.052,-0.12 -0.065,-0.187c-0.022,-0.114 0.002,-0.224 0,-0.337c-0.003,-0.2 0.017,-0.379 -0.078,-0.55c-0.38,-0.688 -1.236,-0.929 -1.975,-0.789c-0.18,0.034 -0.287,0.126 -0.442,0.207c-0.17,0.088 -0.139,0.166 -0.318,0.224c-0.081,0.026 -0.216,0.124 -0.215,0.224c0.002,0.115 0.005,0.051 0.012,0.169c-0.021,0.011 -0.021,-0.005 -0.03,-0.025" fill="#FFFFFF"/>
     <path id="svg_12" d="m8.105,-71.653c0.018,0.072 0.007,0.127 -0.026,0.19c-0.053,0.101 -0.112,0.062 -0.165,0.128c-0.05,0.062 -0.099,0.276 -0.079,0.362c-0.169,0.058 -0.01,0.227 -0.015,0.35c-0.002,0.05 -0.041,0.105 -0.045,0.161c-0.01,0.119 0.017,0.266 0.068,0.37c0.097,0.198 0.268,0.413 0.435,0.544c0.19,0.148 0.365,0.572 0.608,0.631c0.177,0.042 0.384,-0.104 0.543,-0.143c0.18,-0.043 0.397,0.01 0.571,-0.053c0.222,-0.079 0.127,-0.337 0.288,-0.45c0.105,-0.074 0.287,-0.01 0.406,-0.051c0.2,-0.069 0.339,-0.263 0.376,-0.46c0.016,-0.082 0.01,-0.145 0.039,-0.221c0.038,-0.103 0.111,-0.16 0.09,-0.293c-0.01,-0.062 -0.052,-0.12 -0.064,-0.187c-0.022,-0.114 0.002,-0.224 0,-0.337c-0.003,-0.2 0.017,-0.379 -0.078,-0.55c-0.38,-0.688 -1.236,-0.929 -1.975,-0.789c-0.18,0.034 -0.287,0.126 -0.442,0.207c-0.17,0.088 -0.139,0.166 -0.318,0.224c-0.081,0.026 -0.216,0.124 -0.215,0.224c0.001,0.115 0.005,0.051 0.012,0.169c-0.021,0.011 -0.021,-0.005 -0.03,-0.025" fill="#FFFFFF"/>
     <path id="svg_13" d="m0.439,-71.653c0.018,0.072 0.008,0.127 -0.026,0.19c-0.052,0.101 -0.113,0.063 -0.165,0.128c-0.051,0.062 -0.099,0.276 -0.079,0.362c-0.169,0.058 -0.01,0.227 -0.015,0.35c-0.002,0.05 -0.041,0.105 -0.045,0.161c-0.01,0.119 0.017,0.266 0.068,0.37c0.097,0.198 0.268,0.413 0.435,0.544c0.19,0.148 0.365,0.572 0.608,0.631c0.177,0.042 0.384,-0.104 0.543,-0.143c0.18,-0.043 0.397,0.01 0.571,-0.053c0.222,-0.079 0.127,-0.337 0.288,-0.45c0.104,-0.074 0.287,-0.01 0.406,-0.051c0.2,-0.07 0.339,-0.263 0.376,-0.46c0.016,-0.082 0.01,-0.145 0.039,-0.221c0.038,-0.103 0.111,-0.16 0.09,-0.293c-0.01,-0.062 -0.051,-0.12 -0.064,-0.187c-0.021,-0.114 0.002,-0.224 0,-0.337c-0.003,-0.2 0.017,-0.379 -0.078,-0.55c-0.38,-0.688 -1.236,-0.929 -1.975,-0.789c-0.18,0.034 -0.287,0.126 -0.442,0.207c-0.17,0.088 -0.139,0.166 -0.318,0.224c-0.081,0.026 -0.215,0.124 -0.215,0.224c0.002,0.115 0.005,0.051 0.012,0.169c-0.021,0.011 -0.021,-0.005 -0.03,-0.025" fill="#FFFFFF"/>
    </g>
    <g id="svg_14">
     <path id="svg_15" d="m69.439,-71.653c0.017,0.072 0.008,0.127 -0.026,0.19c-0.052,0.101 -0.113,0.062 -0.165,0.128c-0.051,0.062 -0.099,0.276 -0.079,0.362c-0.169,0.058 -0.01,0.227 -0.015,0.35c-0.002,0.05 -0.041,0.105 -0.045,0.161c-0.01,0.119 0.017,0.266 0.068,0.37c0.097,0.198 0.268,0.413 0.435,0.544c0.19,0.148 0.365,0.572 0.608,0.631c0.177,0.042 0.384,-0.104 0.543,-0.143c0.18,-0.043 0.397,0.01 0.571,-0.053c0.222,-0.079 0.127,-0.337 0.288,-0.45c0.104,-0.074 0.287,-0.01 0.406,-0.051c0.2,-0.07 0.339,-0.263 0.376,-0.46c0.016,-0.082 0.01,-0.145 0.039,-0.221c0.038,-0.103 0.111,-0.16 0.09,-0.293c-0.01,-0.062 -0.051,-0.12 -0.064,-0.187c-0.021,-0.114 0.002,-0.224 0.001,-0.337c-0.003,-0.2 0.017,-0.379 -0.078,-0.55c-0.38,-0.688 -1.236,-0.929 -1.975,-0.789c-0.18,0.034 -0.287,0.126 -0.442,0.207c-0.17,0.088 -0.139,0.166 -0.318,0.224c-0.081,0.026 -0.215,0.124 -0.215,0.224c0.002,0.115 0.005,0.051 0.012,0.169c-0.021,0.011 -0.021,-0.005 -0.03,-0.025" fill="#FFFFFF"/>
    </g>
    <path id="svg_16" d="m0.495,-71.653c0.018,0.072 0.008,0.127 -0.026,0.19c-0.052,0.101 -0.113,0.062 -0.165,0.128c-0.051,0.062 -0.099,0.276 -0.079,0.362c-0.169,0.058 -0.01,0.227 -0.015,0.35c-0.002,0.05 -0.041,0.105 -0.045,0.161c-0.01,0.119 0.017,0.266 0.068,0.37c0.097,0.198 0.268,0.413 0.435,0.544c0.19,0.148 0.365,0.572 0.608,0.631c0.177,0.042 0.384,-0.104 0.543,-0.143c0.18,-0.043 0.397,0.01 0.571,-0.053c0.222,-0.079 0.127,-0.337 0.288,-0.45c0.104,-0.074 0.287,-0.01 0.406,-0.051c0.2,-0.07 0.339,-0.263 0.376,-0.46c0.016,-0.082 0.01,-0.145 0.039,-0.221c0.038,-0.103 0.111,-0.16 0.09,-0.293c-0.01,-0.062 -0.051,-0.12 -0.064,-0.187c-0.021,-0.114 0.002,-0.224 0,-0.337c-0.003,-0.2 0.017,-0.379 -0.078,-0.55c-0.38,-0.688 -1.236,-0.929 -1.975,-0.789c-0.18,0.034 -0.287,0.126 -0.442,0.207c-0.17,0.088 -0.139,0.166 -0.318,0.224c-0.081,0.026 -0.215,0.124 -0.215,0.224c0.003,0.116 0.006,0.052 0.013,0.17c-0.021,0.011 -0.021,-0.005 -0.03,-0.025" fill="#FFFFFF"/>
    <g id="svg_17">
     <g id="svg_18">
      <path id="svg_19" d="m69.439,-64.001c0.017,0.072 0.007,0.127 -0.026,0.19c-0.053,0.101 -0.112,0.062 -0.165,0.128c-0.05,0.062 -0.099,0.276 -0.079,0.362c-0.169,0.058 -0.01,0.227 -0.015,0.35c-0.002,0.05 -0.041,0.105 -0.045,0.161c-0.01,0.119 0.017,0.266 0.068,0.37c0.097,0.198 0.268,0.413 0.435,0.544c0.19,0.148 0.365,0.572 0.608,0.631c0.177,0.042 0.384,-0.104 0.543,-0.143c0.18,-0.043 0.397,0.01 0.571,-0.053c0.222,-0.079 0.127,-0.337 0.288,-0.45c0.104,-0.074 0.287,-0.01 0.406,-0.051c0.2,-0.069 0.339,-0.263 0.376,-0.46c0.016,-0.082 0.01,-0.145 0.039,-0.221c0.039,-0.102 0.111,-0.16 0.09,-0.293c-0.01,-0.062 -0.052,-0.12 -0.064,-0.187c-0.022,-0.114 0.002,-0.224 0.001,-0.337c-0.003,-0.2 0.017,-0.379 -0.078,-0.55c-0.38,-0.688 -1.236,-0.929 -1.975,-0.789c-0.18,0.034 -0.287,0.126 -0.442,0.207c-0.17,0.088 -0.139,0.166 -0.318,0.224c-0.081,0.026 -0.216,0.124 -0.215,0.224c0.001,0.115 0.005,0.051 0.012,0.169c-0.021,0.011 -0.021,-0.005 -0.03,-0.025" fill="#FFFFFF"/>
      <path id="svg_20" d="m61.778,-64.001c0.018,0.072 0.007,0.127 -0.026,0.19c-0.053,0.101 -0.112,0.062 -0.165,0.128c-0.05,0.062 -0.099,0.276 -0.079,0.362c-0.169,0.058 -0.009,0.227 -0.015,0.35c-0.002,0.05 -0.041,0.105 -0.045,0.161c-0.01,0.119 0.017,0.266 0.068,0.37c0.097,0.198 0.268,0.413 0.435,0.544c0.19,0.148 0.365,0.572 0.608,0.631c0.177,0.042 0.384,-0.104 0.543,-0.143c0.18,-0.043 0.397,0.01 0.571,-0.053c0.222,-0.079 0.127,-0.337 0.288,-0.45c0.104,-0.074 0.287,-0.01 0.406,-0.051c0.2,-0.069 0.339,-0.263 0.376,-0.46c0.016,-0.082 0.01,-0.145 0.039,-0.221c0.039,-0.102 0.111,-0.16 0.09,-0.293c-0.01,-0.062 -0.052,-0.12 -0.064,-0.187c-0.022,-0.114 0.002,-0.224 0,-0.337c-0.003,-0.2 0.017,-0.379 -0.078,-0.55c-0.38,-0.688 -1.236,-0.929 -1.975,-0.789c-0.18,0.034 -0.287,0.126 -0.442,0.207c-0.17,0.088 -0.139,0.166 -0.318,0.224c-0.081,0.026 -0.216,0.124 -0.215,0.224c0.001,0.115 0.005,0.051 0.012,0.169c-0.021,0.011 -0.021,-0.005 -0.03,-0.025" fill="#FFFFFF"/>
      <path id="svg_21" d="m54.118,-64.001c0.018,0.072 0.007,0.127 -0.026,0.19c-0.053,0.101 -0.112,0.062 -0.165,0.128c-0.05,0.062 -0.099,0.276 -0.079,0.362c-0.169,0.058 -0.009,0.227 -0.015,0.35c-0.002,0.05 -0.041,0.105 -0.045,0.161c-0.01,0.119 0.017,0.266 0.068,0.37c0.097,0.198 0.268,0.413 0.435,0.544c0.19,0.148 0.365,0.572 0.608,0.631c0.177,0.042 0.384,-0.104 0.543,-0.143c0.18,-0.043 0.397,0.01 0.571,-0.053c0.222,-0.079 0.127,-0.337 0.288,-0.45c0.104,-0.074 0.287,-0.01 0.406,-0.051c0.2,-0.069 0.339,-0.263 0.376,-0.46c0.016,-0.082 0.01,-0.145 0.039,-0.221c0.038,-0.102 0.111,-0.16 0.09,-0.293c-0.01,-0.062 -0.052,-0.12 -0.064,-0.187c-0.022,-0.114 0.002,-0.224 0,-0.337c-0.003,-0.2 0.017,-0.379 -0.078,-0.55c-0.38,-0.688 -1.236,-0.929 -1.975,-0.789c-0.18,0.034 -0.287,0.126 -0.442,0.207c-0.17,0.088 -0.139,0.166 -0.318,0.224c-0.081,0.026 -0.216,0.124 -0.215,0.224c0.001,0.115 0.005,0.051 0.012,0.169c-0.021,0.011 -0.021,-0.005 -0.03,-0.025" fill="#FFFFFF"/>
      <path id="svg_22" d="m46.458,-64.001c0.018,0.072 0.007,0.127 -0.026,0.19c-0.053,0.101 -0.112,0.062 -0.165,0.128c-0.05,0.062 -0.099,0.276 -0.079,0.362c-0.169,0.058 -0.009,0.227 -0.015,0.35c-0.003,0.05 -0.041,0.105 -0.045,0.161c-0.01,0.119 0.017,0.266 0.068,0.37c0.097,0.198 0.268,0.413 0.435,0.544c0.19,0.148 0.365,0.572 0.608,0.631c0.177,0.042 0.384,-0.104 0.543,-0.143c0.18,-0.043 0.397,0.01 0.571,-0.053c0.222,-0.079 0.127,-0.337 0.288,-0.45c0.104,-0.074 0.287,-0.01 0.406,-0.051c0.2,-0.069 0.339,-0.263 0.376,-0.46c0.016,-0.082 0.01,-0.145 0.039,-0.221c0.039,-0.102 0.111,-0.16 0.09,-0.293c-0.01,-0.062 -0.052,-0.12 -0.064,-0.187c-0.022,-0.114 0.002,-0.224 0,-0.337c-0.003,-0.2 0.017,-0.379 -0.078,-0.55c-0.38,-0.688 -1.236,-0.929 -1.975,-0.789c-0.18,0.034 -0.287,0.126 -0.442,0.207c-0.17,0.088 -0.139,0.166 -0.318,0.224c-0.081,0.026 -0.216,0.124 -0.215,0.224c0.001,0.115 0.005,0.051 0.012,0.169c-0.021,0.011 -0.021,-0.005 -0.03,-0.025" fill="#FFFFFF"/>
      <path id="svg_23" d="m38.797,-64.001c0.017,0.072 0.007,0.127 -0.026,0.19c-0.053,0.101 -0.112,0.062 -0.165,0.128c-0.05,0.062 -0.099,0.276 -0.079,0.362c-0.169,0.058 -0.009,0.227 -0.015,0.35c-0.002,0.05 -0.041,0.105 -0.045,0.161c-0.01,0.119 0.017,0.266 0.068,0.37c0.097,0.198 0.268,0.413 0.435,0.544c0.19,0.148 0.365,0.572 0.608,0.631c0.177,0.042 0.384,-0.104 0.543,-0.143c0.18,-0.043 0.397,0.01 0.571,-0.053c0.222,-0.079 0.127,-0.337 0.288,-0.45c0.104,-0.074 0.287,-0.01 0.406,-0.051c0.2,-0.069 0.339,-0.263 0.376,-0.46c0.016,-0.082 0.01,-0.145 0.039,-0.221c0.039,-0.102 0.111,-0.16 0.09,-0.293c-0.01,-0.062 -0.052,-0.12 -0.065,-0.187c-0.022,-0.114 0.002,-0.224 0,-0.337c-0.003,-0.2 0.017,-0.379 -0.078,-0.55c-0.38,-0.688 -1.236,-0.929 -1.975,-0.789c-0.18,0.034 -0.287,0.126 -0.442,0.207c-0.17,0.088 -0.139,0.166 -0.318,0.224c-0.081,0.026 -0.216,0.124 -0.215,0.224c0.001,0.115 0.005,0.051 0.012,0.169c-0.021,0.011 -0.021,-0.005 -0.03,-0.025" fill="#FFFFFF"/>
      <path id="svg_24" d="m31.137,-64.001c0.018,0.072 0.007,0.127 -0.026,0.19c-0.053,0.101 -0.112,0.062 -0.165,0.128c-0.05,0.062 -0.099,0.276 -0.079,0.362c-0.169,0.058 -0.009,0.227 -0.015,0.35c-0.003,0.05 -0.041,0.105 -0.045,0.161c-0.01,0.119 0.017,0.266 0.068,0.37c0.097,0.198 0.268,0.413 0.435,0.544c0.19,0.148 0.365,0.572 0.608,0.631c0.177,0.042 0.384,-0.104 0.543,-0.143c0.18,-0.043 0.397,0.01 0.571,-0.053c0.222,-0.079 0.127,-0.337 0.288,-0.45c0.104,-0.074 0.287,-0.01 0.406,-0.051c0.2,-0.069 0.339,-0.263 0.376,-0.46c0.016,-0.082 0.01,-0.145 0.039,-0.221c0.039,-0.102 0.111,-0.16 0.09,-0.293c-0.01,-0.062 -0.052,-0.12 -0.064,-0.187c-0.022,-0.114 0.002,-0.224 0,-0.337c-0.003,-0.2 0.017,-0.379 -0.078,-0.55c-0.38,-0.688 -1.236,-0.929 -1.975,-0.789c-0.18,0.034 -0.287,0.126 -0.442,0.207c-0.17,0.088 -0.139,0.166 -0.318,0.224c-0.081,0.026 -0.216,0.124 -0.215,0.224c0.001,0.115 0.005,0.051 0.012,0.169c-0.021,0.011 -0.021,-0.005 -0.03,-0.025" fill="#FFFFFF"/>
      <path id="svg_25" d="m23.477,-64.001c0.017,0.072 0.007,0.127 -0.026,0.19c-0.053,0.101 -0.112,0.062 -0.165,0.128c-0.05,0.062 -0.099,0.276 -0.079,0.362c-0.169,0.058 -0.009,0.227 -0.015,0.35c-0.002,0.05 -0.041,0.105 -0.045,0.161c-0.01,0.119 0.017,0.266 0.068,0.37c0.097,0.198 0.268,0.413 0.435,0.544c0.19,0.148 0.365,0.572 0.608,0.631c0.177,0.042 0.384,-0.104 0.543,-0.143c0.18,-0.043 0.397,0.01 0.571,-0.053c0.222,-0.079 0.127,-0.337 0.288,-0.45c0.104,-0.074 0.287,-0.01 0.406,-0.051c0.2,-0.069 0.339,-0.263 0.376,-0.46c0.016,-0.082 0.01,-0.145 0.039,-0.221c0.038,-0.102 0.111,-0.16 0.09,-0.293c-0.01,-0.062 -0.052,-0.12 -0.065,-0.187c-0.022,-0.114 0.002,-0.224 0,-0.337c-0.003,-0.2 0.017,-0.379 -0.078,-0.55c-0.38,-0.688 -1.236,-0.929 -1.975,-0.789c-0.18,0.034 -0.287,0.126 -0.442,0.207c-0.17,0.088 -0.139,0.166 -0.318,0.224c-0.081,0.026 -0.216,0.124 -0.215,0.224c0.002,0.115 0.005,0.051 0.012,0.169c-0.021,0.011 -0.021,-0.005 -0.03,-0.025" fill="#FFFFFF"/>
      <path id="svg_26" d="m15.816,-64.001c0.018,0.072 0.007,0.127 -0.026,0.19c-0.053,0.101 -0.112,0.062 -0.165,0.128c-0.05,0.062 -0.099,0.276 -0.079,0.362c-0.169,0.058 -0.009,0.227 -0.015,0.35c-0.002,0.05 -0.041,0.105 -0.045,0.161c-0.01,0.119 0.017,0.266 0.068,0.37c0.097,0.198 0.268,0.413 0.435,0.544c0.19,0.148 0.365,0.572 0.608,0.631c0.177,0.042 0.384,-0.104 0.543,-0.143c0.18,-0.043 0.397,0.01 0.571,-0.053c0.222,-0.079 0.128,-0.337 0.288,-0.45c0.104,-0.074 0.287,-0.01 0.406,-0.051c0.2,-0.069 0.339,-0.263 0.376,-0.46c0.016,-0.082 0.01,-0.145 0.039,-0.221c0.039,-0.102 0.111,-0.16 0.09,-0.293c-0.01,-0.062 -0.052,-0.12 -0.064,-0.187c-0.022,-0.114 0.002,-0.224 0,-0.337c-0.003,-0.2 0.017,-0.379 -0.078,-0.55c-0.38,-0.688 -1.236,-0.929 -1.975,-0.789c-0.18,0.034 -0.287,0.126 -0.442,0.207c-0.17,0.088 -0.139,0.166 -0.318,0.224c-0.081,0.026 -0.216,0.124 -0.215,0.224c0.002,0.115 0.005,0.051 0.012,0.169c-0.021,0.011 -0.021,-0.005 -0.03,-0.025" fill="#FFFFFF"/>
      <path id="svg_27" d="m8.156,-64.001c0.018,0.072 0.007,0.127 -0.026,0.19c-0.053,0.101 -0.112,0.062 -0.165,0.128c-0.05,0.062 -0.099,0.276 -0.079,0.362c-0.169,0.058 -0.009,0.227 -0.015,0.35c-0.002,0.05 -0.041,0.105 -0.045,0.161c-0.01,0.119 0.017,0.266 0.068,0.37c0.097,0.198 0.268,0.413 0.435,0.544c0.19,0.148 0.365,0.572 0.608,0.631c0.177,0.042 0.384,-0.104 0.543,-0.143c0.18,-0.043 0.397,0.01 0.571,-0.053c0.222,-0.079 0.127,-0.337 0.288,-0.45c0.104,-0.074 0.287,-0.01 0.406,-0.051c0.2,-0.069 0.339,-0.263 0.376,-0.46c0.016,-0.082 0.01,-0.145 0.039,-0.221c0.038,-0.102 0.111,-0.16 0.09,-0.293c-0.01,-0.062 -0.052,-0.12 -0.064,-0.187c-0.022,-0.114 0.002,-0.224 0,-0.337c-0.003,-0.2 0.017,-0.379 -0.078,-0.55c-0.38,-0.688 -1.236,-0.929 -1.975,-0.789c-0.18,0.034 -0.287,0.126 -0.442,0.207c-0.17,0.088 -0.139,0.166 -0.318,0.224c-0.081,0.026 -0.216,0.124 -0.215,0.224c0.001,0.115 0.005,0.051 0.012,0.169c-0.021,0.011 -0.021,-0.005 -0.03,-0.025" fill="#FFFFFF"/>
      <path id="svg_28" d="m0.495,-64.001c0.018,0.072 0.007,0.127 -0.026,0.19c-0.053,0.101 -0.112,0.062 -0.165,0.128c-0.05,0.062 -0.099,0.276 -0.079,0.362c-0.169,0.058 -0.01,0.227 -0.015,0.35c-0.002,0.05 -0.041,0.105 -0.045,0.161c-0.01,0.119 0.017,0.266 0.068,0.37c0.097,0.198 0.268,0.413 0.435,0.544c0.19,0.148 0.365,0.572 0.608,0.631c0.177,0.042 0.384,-0.104 0.543,-0.143c0.181,-0.042 0.398,0.011 0.572,-0.052c0.222,-0.079 0.127,-0.337 0.288,-0.45c0.104,-0.074 0.287,-0.01 0.406,-0.051c0.2,-0.069 0.339,-0.263 0.376,-0.46c0.016,-0.082 0.01,-0.145 0.039,-0.221c0.039,-0.102 0.111,-0.16 0.09,-0.293c-0.01,-0.062 -0.052,-0.12 -0.064,-0.187c-0.022,-0.114 0.002,-0.224 0,-0.337c-0.003,-0.2 0.017,-0.379 -0.078,-0.55c-0.38,-0.688 -1.236,-0.929 -1.975,-0.789c-0.18,0.034 -0.287,0.126 -0.442,0.207c-0.17,0.088 -0.139,0.166 -0.318,0.224c-0.081,0.026 -0.216,0.124 -0.215,0.224c0.001,0.115 0.005,0.051 0.012,0.169c-0.021,0.011 -0.021,-0.005 -0.03,-0.025" fill="#FFFFFF"/>
     </g>
     <g id="svg_29">
      <path id="svg_30" d="m69.439,-56.348c0.017,0.072 0.007,0.127 -0.026,0.19c-0.053,0.101 -0.112,0.062 -0.165,0.128c-0.05,0.062 -0.099,0.276 -0.079,0.362c-0.169,0.058 -0.01,0.227 -0.015,0.35c-0.002,0.05 -0.041,0.106 -0.045,0.161c-0.01,0.119 0.017,0.266 0.068,0.37c0.097,0.198 0.268,0.413 0.435,0.544c0.19,0.148 0.365,0.572 0.608,0.631c0.177,0.042 0.384,-0.104 0.543,-0.143c0.18,-0.043 0.397,0.01 0.571,-0.053c0.222,-0.079 0.127,-0.337 0.288,-0.45c0.104,-0.074 0.287,-0.01 0.406,-0.051c0.2,-0.069 0.339,-0.263 0.376,-0.46c0.016,-0.082 0.01,-0.145 0.039,-0.221c0.039,-0.103 0.111,-0.16 0.09,-0.293c-0.01,-0.062 -0.052,-0.12 -0.064,-0.187c-0.022,-0.114 0.002,-0.224 0.001,-0.337c-0.003,-0.2 0.017,-0.379 -0.078,-0.55c-0.38,-0.688 -1.236,-0.929 -1.975,-0.789c-0.18,0.034 -0.287,0.126 -0.442,0.207c-0.17,0.088 -0.139,0.166 -0.318,0.224c-0.081,0.026 -0.216,0.124 -0.215,0.224c0.001,0.115 0.005,0.051 0.012,0.169c-0.021,0.011 -0.021,-0.005 -0.03,-0.025" fill="#FFFFFF"/>
      <path id="svg_31" d="m61.778,-56.348c0.018,0.072 0.007,0.127 -0.026,0.19c-0.053,0.101 -0.112,0.062 -0.165,0.128c-0.05,0.062 -0.099,0.276 -0.079,0.362c-0.169,0.058 -0.009,0.227 -0.015,0.35c-0.002,0.05 -0.041,0.106 -0.045,0.161c-0.01,0.119 0.017,0.266 0.068,0.37c0.097,0.198 0.268,0.413 0.435,0.544c0.19,0.148 0.365,0.572 0.608,0.631c0.177,0.042 0.384,-0.104 0.543,-0.143c0.18,-0.043 0.397,0.01 0.571,-0.053c0.222,-0.079 0.127,-0.337 0.288,-0.45c0.104,-0.074 0.287,-0.01 0.406,-0.051c0.2,-0.069 0.339,-0.263 0.376,-0.46c0.016,-0.082 0.01,-0.145 0.039,-0.221c0.039,-0.103 0.111,-0.16 0.09,-0.293c-0.01,-0.062 -0.052,-0.12 -0.064,-0.187c-0.022,-0.114 0.002,-0.224 0,-0.337c-0.003,-0.2 0.017,-0.379 -0.078,-0.55c-0.38,-0.688 -1.236,-0.929 -1.975,-0.789c-0.18,0.034 -0.287,0.126 -0.442,0.207c-0.17,0.088 -0.139,0.166 -0.318,0.224c-0.081,0.026 -0.216,0.124 -0.215,0.224c0.001,0.115 0.005,0.051 0.012,0.169c-0.021,0.011 -0.021,-0.005 -0.03,-0.025" fill="#FFFFFF"/>
      <path id="svg_32" d="m54.118,-56.348c0.018,0.072 0.007,0.127 -0.026,0.19c-0.053,0.101 -0.112,0.062 -0.165,0.128c-0.05,0.062 -0.099,0.276 -0.079,0.362c-0.169,0.058 -0.009,0.227 -0.015,0.35c-0.002,0.05 -0.041,0.106 -0.045,0.161c-0.01,0.119 0.017,0.266 0.068,0.37c0.097,0.198 0.268,0.413 0.435,0.544c0.19,0.148 0.365,0.572 0.608,0.631c0.177,0.042 0.384,-0.104 0.543,-0.143c0.18,-0.043 0.397,0.01 0.571,-0.053c0.222,-0.079 0.127,-0.337 0.288,-0.45c0.104,-0.074 0.287,-0.01 0.406,-0.051c0.2,-0.069 0.339,-0.263 0.376,-0.46c0.016,-0.082 0.01,-0.145 0.039,-0.221c0.038,-0.103 0.111,-0.16 0.09,-0.293c-0.01,-0.062 -0.052,-0.12 -0.064,-0.187c-0.022,-0.114 0.002,-0.224 0,-0.337c-0.003,-0.2 0.017,-0.379 -0.078,-0.55c-0.38,-0.688 -1.236,-0.929 -1.975,-0.789c-0.18,0.034 -0.287,0.126 -0.442,0.207c-0.17,0.088 -0.139,0.166 -0.318,0.224c-0.081,0.026 -0.216,0.124 -0.215,0.224c0.001,0.115 0.005,0.051 0.012,0.169c-0.021,0.011 -0.021,-0.005 -0.03,-0.025" fill="#FFFFFF"/>
      <path id="svg_33" d="m46.458,-56.348c0.018,0.072 0.007,0.127 -0.026,0.19c-0.053,0.101 -0.112,0.062 -0.165,0.128c-0.05,0.062 -0.099,0.276 -0.079,0.362c-0.169,0.058 -0.009,0.227 -0.015,0.35c-0.003,0.05 -0.041,0.106 -0.045,0.161c-0.01,0.119 0.017,0.266 0.068,0.37c0.097,0.198 0.268,0.413 0.435,0.544c0.19,0.148 0.365,0.572 0.608,0.631c0.177,0.042 0.384,-0.104 0.543,-0.143c0.18,-0.043 0.397,0.01 0.571,-0.053c0.222,-0.079 0.127,-0.337 0.288,-0.45c0.104,-0.074 0.287,-0.01 0.406,-0.051c0.2,-0.069 0.339,-0.263 0.376,-0.46c0.016,-0.082 0.01,-0.145 0.039,-0.221c0.039,-0.103 0.111,-0.16 0.09,-0.293c-0.01,-0.062 -0.052,-0.12 -0.064,-0.187c-0.022,-0.114 0.002,-0.224 0,-0.337c-0.003,-0.2 0.017,-0.379 -0.078,-0.55c-0.38,-0.688 -1.236,-0.929 -1.975,-0.789c-0.18,0.034 -0.287,0.126 -0.442,0.207c-0.17,0.088 -0.139,0.166 -0.318,0.224c-0.081,0.026 -0.216,0.124 -0.215,0.224c0.001,0.115 0.005,0.051 0.012,0.169c-0.021,0.011 -0.021,-0.005 -0.03,-0.025" fill="#FFFFFF"/>
      <path id="svg_34" d="m38.797,-56.348c0.017,0.072 0.007,0.127 -0.026,0.19c-0.053,0.101 -0.112,0.062 -0.165,0.128c-0.05,0.062 -0.099,0.276 -0.079,0.362c-0.169,0.058 -0.009,0.227 -0.015,0.35c-0.002,0.05 -0.041,0.106 -0.045,0.161c-0.01,0.119 0.017,0.266 0.068,0.37c0.097,0.198 0.268,0.413 0.435,0.544c0.19,0.148 0.365,0.572 0.608,0.631c0.177,0.042 0.384,-0.104 0.543,-0.143c0.18,-0.043 0.397,0.01 0.571,-0.053c0.222,-0.079 0.127,-0.337 0.288,-0.45c0.104,-0.074 0.287,-0.01 0.406,-0.051c0.2,-0.069 0.339,-0.263 0.376,-0.46c0.016,-0.082 0.01,-0.145 0.039,-0.221c0.039,-0.103 0.111,-0.16 0.09,-0.293c-0.01,-0.062 -0.052,-0.12 -0.065,-0.187c-0.022,-0.114 0.002,-0.224 0,-0.337c-0.003,-0.2 0.017,-0.379 -0.078,-0.55c-0.38,-0.688 -1.236,-0.929 -1.975,-0.789c-0.18,0.034 -0.287,0.126 -0.442,0.207c-0.17,0.088 -0.139,0.166 -0.318,0.224c-0.081,0.026 -0.216,0.124 -0.215,0.224c0.001,0.115 0.005,0.051 0.012,0.169c-0.021,0.011 -0.021,-0.005 -0.03,-0.025" fill="#FFFFFF"/>
      <path id="svg_35" d="m31.137,-56.348c0.018,0.072 0.007,0.127 -0.026,0.19c-0.053,0.101 -0.112,0.062 -0.165,0.128c-0.05,0.062 -0.099,0.276 -0.079,0.362c-0.169,0.058 -0.009,0.227 -0.015,0.35c-0.003,0.05 -0.041,0.106 -0.045,0.161c-0.01,0.119 0.017,0.266 0.068,0.37c0.097,0.198 0.268,0.413 0.435,0.544c0.19,0.148 0.365,0.572 0.608,0.631c0.177,0.042 0.384,-0.104 0.543,-0.143c0.18,-0.043 0.397,0.01 0.571,-0.053c0.222,-0.079 0.127,-0.337 0.288,-0.45c0.104,-0.074 0.287,-0.01 0.406,-0.051c0.2,-0.069 0.339,-0.263 0.376,-0.46c0.016,-0.082 0.01,-0.145 0.039,-0.221c0.039,-0.103 0.111,-0.16 0.09,-0.293c-0.01,-0.062 -0.052,-0.12 -0.064,-0.187c-0.022,-0.114 0.002,-0.224 0,-0.337c-0.003,-0.2 0.017,-0.379 -0.078,-0.55c-0.38,-0.688 -1.236,-0.929 -1.975,-0.789c-0.18,0.034 -0.287,0.126 -0.442,0.207c-0.17,0.088 -0.139,0.166 -0.318,0.224c-0.081,0.026 -0.216,0.124 -0.215,0.224c0.001,0.115 0.005,0.051 0.012,0.169c-0.021,0.011 -0.021,-0.005 -0.03,-0.025" fill="#FFFFFF"/>
      <path id="svg_36" d="m23.477,-56.348c0.017,0.072 0.007,0.127 -0.026,0.19c-0.053,0.101 -0.112,0.062 -0.165,0.128c-0.05,0.062 -0.099,0.276 -0.079,0.362c-0.169,0.058 -0.009,0.227 -0.015,0.35c-0.002,0.05 -0.041,0.106 -0.045,0.161c-0.01,0.119 0.017,0.266 0.068,0.37c0.097,0.198 0.268,0.413 0.435,0.544c0.19,0.148 0.365,0.572 0.608,0.631c0.177,0.042 0.384,-0.104 0.543,-0.143c0.18,-0.043 0.397,0.01 0.571,-0.053c0.222,-0.079 0.127,-0.337 0.288,-0.45c0.104,-0.074 0.287,-0.01 0.406,-0.051c0.2,-0.069 0.339,-0.263 0.376,-0.46c0.016,-0.082 0.01,-0.145 0.039,-0.221c0.038,-0.103 0.111,-0.16 0.09,-0.293c-0.01,-0.062 -0.052,-0.12 -0.065,-0.187c-0.022,-0.114 0.002,-0.224 0,-0.337c-0.003,-0.2 0.017,-0.379 -0.078,-0.55c-0.38,-0.688 -1.236,-0.929 -1.975,-0.789c-0.18,0.034 -0.287,0.126 -0.442,0.207c-0.17,0.088 -0.139,0.166 -0.318,0.224c-0.081,0.026 -0.216,0.124 -0.215,0.224c0.002,0.115 0.005,0.051 0.012,0.169c-0.021,0.011 -0.021,-0.005 -0.03,-0.025" fill="#FFFFFF"/>
      <path id="svg_37" d="m15.816,-56.348c0.018,0.072 0.007,0.127 -0.026,0.19c-0.053,0.101 -0.112,0.062 -0.165,0.128c-0.05,0.062 -0.099,0.276 -0.079,0.362c-0.169,0.058 -0.009,0.227 -0.015,0.35c-0.002,0.05 -0.041,0.106 -0.045,0.161c-0.01,0.119 0.017,0.266 0.068,0.37c0.097,0.198 0.268,0.413 0.435,0.544c0.19,0.148 0.365,0.572 0.608,0.631c0.177,0.042 0.384,-0.104 0.543,-0.143c0.18,-0.043 0.397,0.01 0.571,-0.053c0.222,-0.079 0.128,-0.337 0.288,-0.45c0.104,-0.074 0.287,-0.01 0.406,-0.051c0.2,-0.069 0.339,-0.263 0.376,-0.46c0.016,-0.082 0.01,-0.145 0.039,-0.221c0.039,-0.103 0.111,-0.16 0.09,-0.293c-0.01,-0.062 -0.052,-0.12 -0.064,-0.187c-0.022,-0.114 0.002,-0.224 0,-0.337c-0.003,-0.2 0.017,-0.379 -0.078,-0.55c-0.38,-0.688 -1.236,-0.929 -1.975,-0.789c-0.18,0.034 -0.287,0.126 -0.442,0.207c-0.17,0.088 -0.139,0.166 -0.318,0.224c-0.081,0.026 -0.216,0.124 -0.215,0.224c0.002,0.115 0.005,0.051 0.012,0.169c-0.021,0.011 -0.021,-0.005 -0.03,-0.025" fill="#FFFFFF"/>
      <path id="svg_38" d="m8.156,-56.348c0.018,0.072 0.007,0.127 -0.026,0.19c-0.053,0.101 -0.112,0.062 -0.165,0.128c-0.05,0.062 -0.099,0.276 -0.079,0.362c-0.169,0.058 -0.009,0.227 -0.015,0.35c-0.002,0.05 -0.041,0.106 -0.045,0.161c-0.01,0.119 0.017,0.266 0.068,0.37c0.097,0.198 0.268,0.413 0.435,0.544c0.19,0.148 0.365,0.572 0.608,0.631c0.177,0.042 0.384,-0.104 0.543,-0.143c0.18,-0.043 0.397,0.01 0.571,-0.053c0.222,-0.079 0.127,-0.337 0.288,-0.45c0.104,-0.074 0.287,-0.01 0.406,-0.051c0.2,-0.069 0.339,-0.263 0.376,-0.46c0.016,-0.082 0.01,-0.145 0.039,-0.221c0.038,-0.103 0.111,-0.16 0.09,-0.293c-0.01,-0.062 -0.052,-0.12 -0.064,-0.187c-0.022,-0.114 0.002,-0.224 0,-0.337c-0.003,-0.2 0.017,-0.379 -0.078,-0.55c-0.38,-0.688 -1.236,-0.929 -1.975,-0.789c-0.18,0.034 -0.287,0.126 -0.442,0.207c-0.17,0.088 -0.139,0.166 -0.318,0.224c-0.081,0.026 -0.216,0.124 -0.215,0.224c0.001,0.115 0.005,0.051 0.012,0.169c-0.021,0.011 -0.021,-0.005 -0.03,-0.025" fill="#FFFFFF"/>
      <path id="svg_39" d="m0.495,-56.348c0.018,0.072 0.007,0.127 -0.026,0.19c-0.053,0.101 -0.112,0.062 -0.165,0.128c-0.05,0.062 -0.099,0.276 -0.079,0.362c-0.169,0.058 -0.01,0.227 -0.015,0.35c-0.002,0.05 -0.041,0.106 -0.045,0.161c-0.01,0.119 0.017,0.266 0.068,0.37c0.097,0.198 0.268,0.413 0.435,0.544c0.19,0.148 0.365,0.572 0.608,0.631c0.177,0.042 0.384,-0.104 0.543,-0.143c0.18,-0.043 0.397,0.01 0.571,-0.053c0.222,-0.079 0.127,-0.337 0.288,-0.45c0.104,-0.074 0.287,-0.01 0.406,-0.051c0.2,-0.069 0.339,-0.263 0.376,-0.46c0.016,-0.082 0.01,-0.145 0.039,-0.221c0.039,-0.103 0.111,-0.16 0.09,-0.293c-0.01,-0.062 -0.052,-0.12 -0.064,-0.187c-0.022,-0.114 0.002,-0.224 0,-0.337c-0.003,-0.2 0.017,-0.379 -0.078,-0.55c-0.38,-0.688 -1.236,-0.929 -1.975,-0.789c-0.18,0.034 -0.287,0.126 -0.442,0.207c-0.17,0.088 -0.139,0.166 -0.318,0.224c-0.081,0.026 -0.216,0.124 -0.215,0.224c0.003,0.117 0.006,0.053 0.013,0.171c-0.021,0.011 -0.021,-0.005 -0.03,-0.025" fill="#FFFFFF"/>
     </g>
     <g id="svg_40">
      <path id="svg_41" d="m69.439,-48.695c0.017,0.072 0.007,0.127 -0.026,0.19c-0.053,0.101 -0.112,0.062 -0.165,0.128c-0.05,0.062 -0.099,0.276 -0.079,0.362c-0.169,0.058 -0.01,0.226 -0.015,0.35c-0.002,0.05 -0.041,0.105 -0.045,0.161c-0.01,0.119 0.017,0.266 0.068,0.37c0.097,0.198 0.268,0.413 0.435,0.544c0.19,0.148 0.365,0.572 0.608,0.631c0.177,0.042 0.384,-0.104 0.543,-0.143c0.18,-0.043 0.397,0.01 0.571,-0.053c0.222,-0.079 0.127,-0.337 0.288,-0.45c0.104,-0.074 0.287,-0.01 0.406,-0.051c0.2,-0.069 0.339,-0.263 0.376,-0.46c0.016,-0.082 0.01,-0.145 0.039,-0.221c0.039,-0.103 0.111,-0.16 0.09,-0.293c-0.01,-0.062 -0.052,-0.12 -0.064,-0.187c-0.022,-0.114 0.002,-0.224 0.001,-0.337c-0.003,-0.2 0.017,-0.379 -0.078,-0.55c-0.38,-0.688 -1.236,-0.929 -1.975,-0.789c-0.18,0.034 -0.287,0.126 -0.442,0.207c-0.17,0.088 -0.139,0.166 -0.318,0.224c-0.081,0.026 -0.216,0.124 -0.215,0.224c0.001,0.115 0.005,0.051 0.012,0.169c-0.021,0.011 -0.021,-0.005 -0.03,-0.025" fill="#FFFFFF"/>
      <path id="svg_42" d="m61.778,-48.695c0.018,0.072 0.007,0.127 -0.026,0.19c-0.053,0.101 -0.112,0.062 -0.165,0.128c-0.05,0.062 -0.099,0.276 -0.079,0.362c-0.169,0.058 -0.009,0.226 -0.015,0.35c-0.002,0.05 -0.041,0.105 -0.045,0.161c-0.01,0.119 0.017,0.266 0.068,0.37c0.097,0.198 0.268,0.413 0.435,0.544c0.19,0.148 0.365,0.572 0.608,0.631c0.177,0.042 0.384,-0.104 0.543,-0.143c0.18,-0.043 0.397,0.01 0.571,-0.053c0.222,-0.079 0.127,-0.337 0.288,-0.45c0.104,-0.074 0.287,-0.01 0.406,-0.051c0.2,-0.069 0.339,-0.263 0.376,-0.46c0.016,-0.082 0.01,-0.145 0.039,-0.221c0.039,-0.103 0.111,-0.16 0.09,-0.293c-0.01,-0.062 -0.052,-0.12 -0.064,-0.187c-0.022,-0.114 0.002,-0.224 0,-0.337c-0.003,-0.2 0.017,-0.379 -0.078,-0.55c-0.38,-0.688 -1.236,-0.929 -1.975,-0.789c-0.18,0.034 -0.287,0.126 -0.442,0.207c-0.17,0.088 -0.139,0.166 -0.318,0.224c-0.081,0.026 -0.216,0.124 -0.215,0.224c0.001,0.115 0.005,0.051 0.012,0.169c-0.021,0.011 -0.021,-0.005 -0.03,-0.025" fill="#FFFFFF"/>
      <path id="svg_43" d="m54.118,-48.695c0.018,0.072 0.007,0.127 -0.026,0.19c-0.053,0.101 -0.112,0.062 -0.165,0.128c-0.05,0.062 -0.099,0.276 -0.079,0.362c-0.169,0.058 -0.009,0.226 -0.015,0.35c-0.002,0.05 -0.041,0.105 -0.045,0.161c-0.01,0.119 0.017,0.266 0.068,0.37c0.097,0.198 0.268,0.413 0.435,0.544c0.19,0.148 0.365,0.572 0.608,0.631c0.177,0.042 0.384,-0.104 0.543,-0.143c0.18,-0.043 0.397,0.01 0.571,-0.053c0.222,-0.079 0.127,-0.337 0.288,-0.45c0.104,-0.074 0.287,-0.01 0.406,-0.051c0.2,-0.069 0.339,-0.263 0.376,-0.46c0.016,-0.082 0.01,-0.145 0.039,-0.221c0.038,-0.103 0.111,-0.16 0.09,-0.293c-0.01,-0.062 -0.052,-0.12 -0.064,-0.187c-0.022,-0.114 0.002,-0.224 0,-0.337c-0.003,-0.2 0.017,-0.379 -0.078,-0.55c-0.38,-0.688 -1.236,-0.929 -1.975,-0.789c-0.18,0.034 -0.287,0.126 -0.442,0.207c-0.17,0.088 -0.139,0.166 -0.318,0.224c-0.081,0.026 -0.216,0.124 -0.215,0.224c0.001,0.115 0.005,0.051 0.012,0.169c-0.021,0.011 -0.021,-0.005 -0.03,-0.025" fill="#FFFFFF"/>
      <path id="svg_44" d="m46.458,-48.695c0.018,0.072 0.007,0.127 -0.026,0.19c-0.053,0.101 -0.112,0.062 -0.165,0.128c-0.05,0.062 -0.099,0.276 -0.079,0.362c-0.169,0.058 -0.009,0.226 -0.015,0.35c-0.003,0.05 -0.041,0.105 -0.045,0.161c-0.01,0.119 0.017,0.266 0.068,0.37c0.097,0.198 0.268,0.413 0.435,0.544c0.19,0.148 0.365,0.572 0.608,0.631c0.177,0.042 0.384,-0.104 0.543,-0.143c0.18,-0.043 0.397,0.01 0.571,-0.053c0.222,-0.079 0.127,-0.337 0.288,-0.45c0.104,-0.074 0.287,-0.01 0.406,-0.051c0.2,-0.069 0.339,-0.263 0.376,-0.46c0.016,-0.082 0.01,-0.145 0.039,-0.221c0.039,-0.103 0.111,-0.16 0.09,-0.293c-0.01,-0.062 -0.052,-0.12 -0.064,-0.187c-0.022,-0.114 0.002,-0.224 0,-0.337c-0.003,-0.2 0.017,-0.379 -0.078,-0.55c-0.38,-0.688 -1.236,-0.929 -1.975,-0.789c-0.18,0.034 -0.287,0.126 -0.442,0.207c-0.17,0.088 -0.139,0.166 -0.318,0.224c-0.081,0.026 -0.216,0.124 -0.215,0.224c0.001,0.115 0.005,0.051 0.012,0.169c-0.021,0.011 -0.021,-0.005 -0.03,-0.025" fill="#FFFFFF"/>
      <path id="svg_45" d="m38.797,-48.695c0.017,0.072 0.007,0.127 -0.026,0.19c-0.053,0.101 -0.112,0.062 -0.165,0.128c-0.05,0.062 -0.099,0.276 -0.079,0.362c-0.169,0.058 -0.009,0.226 -0.015,0.35c-0.002,0.05 -0.041,0.105 -0.045,0.161c-0.01,0.119 0.017,0.266 0.068,0.37c0.097,0.198 0.268,0.413 0.435,0.544c0.19,0.148 0.365,0.572 0.608,0.631c0.177,0.042 0.384,-0.104 0.543,-0.143c0.18,-0.043 0.397,0.01 0.571,-0.053c0.222,-0.079 0.127,-0.337 0.288,-0.45c0.104,-0.074 0.287,-0.01 0.406,-0.051c0.2,-0.069 0.339,-0.263 0.376,-0.46c0.016,-0.082 0.01,-0.145 0.039,-0.221c0.039,-0.103 0.111,-0.16 0.09,-0.293c-0.01,-0.062 -0.052,-0.12 -0.065,-0.187c-0.022,-0.114 0.002,-0.224 0,-0.337c-0.003,-0.2 0.017,-0.379 -0.078,-0.55c-0.38,-0.688 -1.236,-0.929 -1.975,-0.789c-0.18,0.034 -0.287,0.126 -0.442,0.207c-0.17,0.088 -0.139,0.166 -0.318,0.224c-0.081,0.026 -0.216,0.124 -0.215,0.224c0.001,0.115 0.005,0.051 0.012,0.169c-0.021,0.011 -0.021,-0.005 -0.03,-0.025" fill="#FFFFFF"/>
      <path id="svg_46" d="m31.137,-48.695c0.018,0.072 0.007,0.127 -0.026,0.19c-0.053,0.101 -0.112,0.062 -0.165,0.128c-0.05,0.062 -0.099,0.276 -0.079,0.362c-0.169,0.058 -0.009,0.226 -0.015,0.35c-0.003,0.05 -0.041,0.105 -0.045,0.161c-0.01,0.119 0.017,0.266 0.068,0.37c0.097,0.198 0.268,0.413 0.435,0.544c0.19,0.148 0.365,0.572 0.608,0.631c0.177,0.042 0.384,-0.104 0.543,-0.143c0.18,-0.043 0.397,0.01 0.571,-0.053c0.222,-0.079 0.127,-0.337 0.288,-0.45c0.104,-0.074 0.287,-0.01 0.406,-0.051c0.2,-0.069 0.339,-0.263 0.376,-0.46c0.016,-0.082 0.01,-0.145 0.039,-0.221c0.039,-0.103 0.111,-0.16 0.09,-0.293c-0.01,-0.062 -0.052,-0.12 -0.064,-0.187c-0.022,-0.114 0.002,-0.224 0,-0.337c-0.003,-0.2 0.017,-0.379 -0.078,-0.55c-0.38,-0.688 -1.236,-0.929 -1.975,-0.789c-0.18,0.034 -0.287,0.126 -0.442,0.207c-0.17,0.088 -0.139,0.166 -0.318,0.224c-0.081,0.026 -0.216,0.124 -0.215,0.224c0.001,0.115 0.005,0.051 0.012,0.169c-0.021,0.011 -0.021,-0.005 -0.03,-0.025" fill="#FFFFFF"/>
      <path id="svg_47" d="m23.477,-48.695c0.017,0.072 0.007,0.127 -0.026,0.19c-0.053,0.101 -0.112,0.062 -0.165,0.128c-0.05,0.062 -0.099,0.276 -0.079,0.362c-0.169,0.058 -0.009,0.226 -0.015,0.35c-0.002,0.05 -0.041,0.105 -0.045,0.161c-0.01,0.119 0.017,0.266 0.068,0.37c0.097,0.198 0.268,0.413 0.435,0.544c0.19,0.148 0.365,0.572 0.608,0.631c0.177,0.042 0.384,-0.104 0.543,-0.143c0.18,-0.043 0.397,0.01 0.571,-0.053c0.222,-0.079 0.127,-0.337 0.288,-0.45c0.104,-0.074 0.287,-0.01 0.406,-0.051c0.2,-0.069 0.339,-0.263 0.376,-0.46c0.016,-0.082 0.01,-0.145 0.039,-0.221c0.038,-0.103 0.111,-0.16 0.09,-0.293c-0.01,-0.062 -0.052,-0.12 -0.065,-0.187c-0.022,-0.114 0.002,-0.224 0,-0.337c-0.003,-0.2 0.017,-0.379 -0.078,-0.55c-0.38,-0.688 -1.236,-0.929 -1.975,-0.789c-0.18,0.034 -0.287,0.126 -0.442,0.207c-0.17,0.088 -0.139,0.166 -0.318,0.224c-0.081,0.026 -0.216,0.124 -0.215,0.224c0.002,0.115 0.005,0.051 0.012,0.169c-0.021,0.011 -0.021,-0.005 -0.03,-0.025" fill="#FFFFFF"/>
      <path id="svg_48" d="m15.816,-48.695c0.018,0.072 0.007,0.127 -0.026,0.19c-0.053,0.101 -0.112,0.062 -0.165,0.128c-0.05,0.062 -0.099,0.276 -0.079,0.362c-0.169,0.058 -0.009,0.226 -0.015,0.35c-0.002,0.05 -0.041,0.105 -0.045,0.161c-0.01,0.119 0.017,0.266 0.068,0.37c0.097,0.198 0.268,0.413 0.435,0.544c0.19,0.148 0.365,0.572 0.608,0.631c0.177,0.042 0.384,-0.104 0.543,-0.143c0.18,-0.043 0.397,0.01 0.571,-0.053c0.222,-0.079 0.128,-0.337 0.288,-0.45c0.104,-0.074 0.287,-0.01 0.406,-0.051c0.2,-0.069 0.339,-0.263 0.376,-0.46c0.016,-0.082 0.01,-0.145 0.039,-0.221c0.039,-0.103 0.111,-0.16 0.09,-0.293c-0.01,-0.062 -0.052,-0.12 -0.064,-0.187c-0.022,-0.114 0.002,-0.224 0,-0.337c-0.003,-0.2 0.017,-0.379 -0.078,-0.55c-0.38,-0.688 -1.236,-0.929 -1.975,-0.789c-0.18,0.034 -0.287,0.126 -0.442,0.207c-0.17,0.088 -0.139,0.166 -0.318,0.224c-0.081,0.026 -0.216,0.124 -0.215,0.224c0.002,0.115 0.005,0.051 0.012,0.169c-0.021,0.011 -0.021,-0.005 -0.03,-0.025" fill="#FFFFFF"/>
      <path id="svg_49" d="m8.156,-48.695c0.018,0.072 0.007,0.127 -0.026,0.19c-0.053,0.101 -0.112,0.062 -0.165,0.128c-0.05,0.062 -0.099,0.276 -0.079,0.362c-0.169,0.058 -0.009,0.226 -0.015,0.35c-0.002,0.05 -0.041,0.105 -0.045,0.161c-0.01,0.119 0.017,0.266 0.068,0.37c0.097,0.198 0.268,0.413 0.435,0.544c0.19,0.148 0.365,0.572 0.608,0.631c0.177,0.042 0.384,-0.104 0.543,-0.143c0.18,-0.043 0.397,0.01 0.571,-0.053c0.222,-0.079 0.127,-0.337 0.288,-0.45c0.104,-0.074 0.287,-0.01 0.406,-0.051c0.2,-0.069 0.339,-0.263 0.376,-0.46c0.016,-0.082 0.01,-0.145 0.039,-0.221c0.038,-0.103 0.111,-0.16 0.09,-0.293c-0.01,-0.062 -0.052,-0.12 -0.064,-0.187c-0.022,-0.114 0.002,-0.224 0,-0.337c-0.003,-0.2 0.017,-0.379 -0.078,-0.55c-0.38,-0.688 -1.236,-0.929 -1.975,-0.789c-0.18,0.034 -0.287,0.126 -0.442,0.207c-0.17,0.088 -0.139,0.166 -0.318,0.224c-0.081,0.026 -0.216,0.124 -0.215,0.224c0.001,0.115 0.005,0.051 0.012,0.169c-0.021,0.011 -0.021,-0.005 -0.03,-0.025" fill="#FFFFFF"/>
      <path id="svg_50" d="m0.495,-48.695c0.018,0.072 0.007,0.127 -0.026,0.19c-0.053,0.101 -0.112,0.062 -0.165,0.128c-0.05,0.062 -0.099,0.276 -0.079,0.362c-0.169,0.058 -0.01,0.226 -0.015,0.35c-0.002,0.05 -0.041,0.105 -0.045,0.161c-0.01,0.119 0.017,0.266 0.068,0.37c0.097,0.198 0.268,0.413 0.435,0.544c0.19,0.148 0.365,0.572 0.608,0.631c0.177,0.042 0.384,-0.104 0.543,-0.143c0.18,-0.043 0.397,0.01 0.571,-0.053c0.222,-0.079 0.127,-0.337 0.288,-0.45c0.104,-0.074 0.287,-0.01 0.406,-0.051c0.2,-0.069 0.339,-0.263 0.376,-0.46c0.016,-0.082 0.01,-0.145 0.039,-0.221c0.039,-0.103 0.111,-0.16 0.09,-0.293c-0.01,-0.062 -0.052,-0.12 -0.064,-0.187c-0.022,-0.114 0.002,-0.224 0,-0.337c-0.003,-0.2 0.017,-0.379 -0.078,-0.55c-0.38,-0.688 -1.236,-0.929 -1.975,-0.789c-0.18,0.034 -0.287,0.126 -0.442,0.207c-0.17,0.088 -0.139,0.166 -0.318,0.224c-0.081,0.026 -0.216,0.124 -0.215,0.224c0.001,0.115 0.005,0.051 0.012,0.169c-0.021,0.011 -0.021,-0.005 -0.03,-0.025" fill="#FFFFFF"/>
     </g>
     <g id="svg_51">
      <path id="svg_52" d="m69.439,-41.042c0.017,0.072 0.007,0.127 -0.026,0.19c-0.053,0.101 -0.112,0.062 -0.165,0.128c-0.05,0.062 -0.099,0.276 -0.079,0.362c-0.169,0.058 -0.01,0.227 -0.015,0.35c-0.002,0.05 -0.041,0.105 -0.045,0.161c-0.01,0.119 0.017,0.266 0.068,0.37c0.097,0.198 0.268,0.413 0.435,0.544c0.19,0.148 0.365,0.572 0.608,0.631c0.177,0.042 0.384,-0.104 0.543,-0.143c0.18,-0.043 0.397,0.01 0.571,-0.053c0.222,-0.079 0.127,-0.337 0.288,-0.45c0.104,-0.074 0.287,-0.01 0.406,-0.051c0.2,-0.069 0.339,-0.263 0.376,-0.46c0.016,-0.082 0.01,-0.145 0.039,-0.221c0.039,-0.103 0.111,-0.16 0.09,-0.293c-0.01,-0.062 -0.052,-0.12 -0.064,-0.187c-0.022,-0.114 0.002,-0.224 0.001,-0.337c-0.003,-0.2 0.017,-0.379 -0.078,-0.55c-0.38,-0.688 -1.236,-0.929 -1.975,-0.789c-0.18,0.034 -0.287,0.126 -0.442,0.207c-0.17,0.088 -0.139,0.166 -0.318,0.224c-0.081,0.026 -0.216,0.124 -0.215,0.224c0.001,0.115 0.005,0.051 0.012,0.169c-0.021,0.011 -0.021,-0.005 -0.03,-0.025" fill="#FFFFFF"/>
      <path id="svg_53" d="m61.778,-41.042c0.018,0.072 0.007,0.127 -0.026,0.19c-0.053,0.101 -0.112,0.062 -0.165,0.128c-0.05,0.062 -0.099,0.276 -0.079,0.362c-0.169,0.058 -0.009,0.227 -0.015,0.35c-0.002,0.05 -0.041,0.105 -0.045,0.161c-0.01,0.119 0.017,0.266 0.068,0.37c0.097,0.198 0.268,0.413 0.435,0.544c0.19,0.148 0.365,0.572 0.608,0.631c0.177,0.042 0.384,-0.104 0.543,-0.143c0.18,-0.043 0.397,0.01 0.571,-0.053c0.222,-0.079 0.127,-0.337 0.288,-0.45c0.104,-0.074 0.287,-0.01 0.406,-0.051c0.2,-0.069 0.339,-0.263 0.376,-0.46c0.016,-0.082 0.01,-0.145 0.039,-0.221c0.039,-0.103 0.111,-0.16 0.09,-0.293c-0.01,-0.062 -0.052,-0.12 -0.064,-0.187c-0.022,-0.114 0.002,-0.224 0,-0.337c-0.003,-0.2 0.017,-0.379 -0.078,-0.55c-0.38,-0.688 -1.236,-0.929 -1.975,-0.789c-0.18,0.034 -0.287,0.126 -0.442,0.207c-0.17,0.088 -0.139,0.166 -0.318,0.224c-0.081,0.026 -0.216,0.124 -0.215,0.224c0.001,0.115 0.005,0.051 0.012,0.169c-0.021,0.011 -0.021,-0.005 -0.03,-0.025" fill="#FFFFFF"/>
      <path id="svg_54" d="m54.118,-41.042c0.018,0.072 0.007,0.127 -0.026,0.19c-0.053,0.101 -0.112,0.062 -0.165,0.128c-0.05,0.062 -0.099,0.276 -0.079,0.362c-0.169,0.058 -0.009,0.227 -0.015,0.35c-0.002,0.05 -0.041,0.105 -0.045,0.161c-0.01,0.119 0.017,0.266 0.068,0.37c0.097,0.198 0.268,0.413 0.435,0.544c0.19,0.148 0.365,0.572 0.608,0.631c0.177,0.042 0.384,-0.104 0.543,-0.143c0.18,-0.043 0.397,0.01 0.571,-0.053c0.222,-0.079 0.127,-0.337 0.288,-0.45c0.104,-0.074 0.287,-0.01 0.406,-0.051c0.2,-0.069 0.339,-0.263 0.376,-0.46c0.016,-0.082 0.01,-0.145 0.039,-0.221c0.038,-0.103 0.111,-0.16 0.09,-0.293c-0.01,-0.062 -0.052,-0.12 -0.064,-0.187c-0.022,-0.114 0.002,-0.224 0,-0.337c-0.003,-0.2 0.017,-0.379 -0.078,-0.55c-0.38,-0.688 -1.236,-0.929 -1.975,-0.789c-0.18,0.034 -0.287,0.126 -0.442,0.207c-0.17,0.088 -0.139,0.166 -0.318,0.224c-0.081,0.026 -0.216,0.124 -0.215,0.224c0.001,0.115 0.005,0.051 0.012,0.169c-0.021,0.011 -0.021,-0.005 -0.03,-0.025" fill="#FFFFFF"/>
      <path id="svg_55" d="m46.458,-41.042c0.018,0.072 0.007,0.127 -0.026,0.19c-0.053,0.101 -0.112,0.062 -0.165,0.128c-0.05,0.062 -0.099,0.276 -0.079,0.362c-0.169,0.058 -0.009,0.227 -0.015,0.35c-0.003,0.05 -0.041,0.105 -0.045,0.161c-0.01,0.119 0.017,0.266 0.068,0.37c0.097,0.198 0.268,0.413 0.435,0.544c0.19,0.148 0.365,0.572 0.608,0.631c0.177,0.042 0.384,-0.104 0.543,-0.143c0.18,-0.043 0.397,0.01 0.571,-0.053c0.222,-0.079 0.127,-0.337 0.288,-0.45c0.104,-0.074 0.287,-0.01 0.406,-0.051c0.2,-0.069 0.339,-0.263 0.376,-0.46c0.016,-0.082 0.01,-0.145 0.039,-0.221c0.039,-0.103 0.111,-0.16 0.09,-0.293c-0.01,-0.062 -0.052,-0.12 -0.064,-0.187c-0.022,-0.114 0.002,-0.224 0,-0.337c-0.003,-0.2 0.017,-0.379 -0.078,-0.55c-0.38,-0.688 -1.236,-0.929 -1.975,-0.789c-0.18,0.034 -0.287,0.126 -0.442,0.207c-0.17,0.088 -0.139,0.166 -0.318,0.224c-0.081,0.026 -0.216,0.124 -0.215,0.224c0.001,0.115 0.005,0.051 0.012,0.169c-0.021,0.011 -0.021,-0.005 -0.03,-0.025" fill="#FFFFFF"/>
      <path id="svg_56" d="m38.797,-41.042c0.017,0.072 0.007,0.127 -0.026,0.19c-0.053,0.101 -0.112,0.062 -0.165,0.128c-0.05,0.062 -0.099,0.276 -0.079,0.362c-0.169,0.058 -0.009,0.227 -0.015,0.35c-0.002,0.05 -0.041,0.105 -0.045,0.161c-0.01,0.119 0.017,0.266 0.068,0.37c0.097,0.198 0.268,0.413 0.435,0.544c0.19,0.148 0.365,0.572 0.608,0.631c0.177,0.042 0.384,-0.104 0.543,-0.143c0.18,-0.043 0.397,0.01 0.571,-0.053c0.222,-0.079 0.127,-0.337 0.288,-0.45c0.104,-0.074 0.287,-0.01 0.406,-0.051c0.2,-0.069 0.339,-0.263 0.376,-0.46c0.016,-0.082 0.01,-0.145 0.039,-0.221c0.039,-0.103 0.111,-0.16 0.09,-0.293c-0.01,-0.062 -0.052,-0.12 -0.065,-0.187c-0.022,-0.114 0.002,-0.224 0,-0.337c-0.003,-0.2 0.017,-0.379 -0.078,-0.55c-0.38,-0.688 -1.236,-0.929 -1.975,-0.789c-0.18,0.034 -0.287,0.126 -0.442,0.207c-0.17,0.088 -0.139,0.166 -0.318,0.224c-0.081,0.026 -0.216,0.124 -0.215,0.224c0.001,0.115 0.005,0.051 0.012,0.169c-0.021,0.011 -0.021,-0.005 -0.03,-0.025" fill="#FFFFFF"/>
      <path id="svg_57" d="m31.137,-41.042c0.018,0.072 0.007,0.127 -0.026,0.19c-0.053,0.101 -0.112,0.062 -0.165,0.128c-0.05,0.062 -0.099,0.276 -0.079,0.362c-0.169,0.058 -0.009,0.227 -0.015,0.35c-0.003,0.05 -0.041,0.105 -0.045,0.161c-0.01,0.119 0.017,0.266 0.068,0.37c0.097,0.198 0.268,0.413 0.435,0.544c0.19,0.148 0.365,0.572 0.608,0.631c0.177,0.042 0.384,-0.104 0.543,-0.143c0.18,-0.043 0.397,0.01 0.571,-0.053c0.222,-0.079 0.127,-0.337 0.288,-0.45c0.104,-0.074 0.287,-0.01 0.406,-0.051c0.2,-0.069 0.339,-0.263 0.376,-0.46c0.016,-0.082 0.01,-0.145 0.039,-0.221c0.039,-0.103 0.111,-0.16 0.09,-0.293c-0.01,-0.062 -0.052,-0.12 -0.064,-0.187c-0.022,-0.114 0.002,-0.224 0,-0.337c-0.003,-0.2 0.017,-0.379 -0.078,-0.55c-0.38,-0.688 -1.236,-0.929 -1.975,-0.789c-0.18,0.034 -0.287,0.126 -0.442,0.207c-0.17,0.088 -0.139,0.166 -0.318,0.224c-0.081,0.026 -0.216,0.124 -0.215,0.224c0.001,0.115 0.005,0.051 0.012,0.169c-0.021,0.011 -0.021,-0.005 -0.03,-0.025" fill="#FFFFFF"/>
      <path id="svg_58" d="m23.477,-41.042c0.017,0.072 0.007,0.127 -0.026,0.19c-0.053,0.101 -0.112,0.062 -0.165,0.128c-0.05,0.062 -0.099,0.276 -0.079,0.362c-0.169,0.058 -0.009,0.227 -0.015,0.35c-0.002,0.05 -0.041,0.105 -0.045,0.161c-0.01,0.119 0.017,0.266 0.068,0.37c0.097,0.198 0.268,0.413 0.435,0.544c0.19,0.148 0.365,0.572 0.608,0.631c0.177,0.042 0.384,-0.104 0.543,-0.143c0.18,-0.043 0.397,0.01 0.571,-0.053c0.222,-0.079 0.127,-0.337 0.288,-0.45c0.104,-0.074 0.287,-0.01 0.406,-0.051c0.2,-0.069 0.339,-0.263 0.376,-0.46c0.016,-0.082 0.01,-0.145 0.039,-0.221c0.038,-0.103 0.111,-0.16 0.09,-0.293c-0.01,-0.062 -0.052,-0.12 -0.065,-0.187c-0.022,-0.114 0.002,-0.224 0,-0.337c-0.003,-0.2 0.017,-0.379 -0.078,-0.55c-0.38,-0.688 -1.236,-0.929 -1.975,-0.789c-0.18,0.034 -0.287,0.126 -0.442,0.207c-0.17,0.088 -0.139,0.166 -0.318,0.224c-0.081,0.026 -0.216,0.124 -0.215,0.224c0.002,0.115 0.005,0.051 0.012,0.169c-0.021,0.011 -0.021,-0.005 -0.03,-0.025" fill="#FFFFFF"/>
      <path id="svg_59" d="m15.816,-41.042c0.018,0.072 0.007,0.127 -0.026,0.19c-0.053,0.101 -0.112,0.062 -0.165,0.128c-0.05,0.062 -0.099,0.276 -0.079,0.362c-0.169,0.058 -0.009,0.227 -0.015,0.35c-0.002,0.05 -0.041,0.105 -0.045,0.161c-0.01,0.119 0.017,0.266 0.068,0.37c0.097,0.198 0.268,0.413 0.435,0.544c0.19,0.148 0.365,0.572 0.608,0.631c0.177,0.042 0.384,-0.104 0.543,-0.143c0.18,-0.043 0.397,0.01 0.571,-0.053c0.222,-0.079 0.128,-0.337 0.288,-0.45c0.104,-0.074 0.287,-0.01 0.406,-0.051c0.2,-0.069 0.339,-0.263 0.376,-0.46c0.016,-0.082 0.01,-0.145 0.039,-0.221c0.039,-0.103 0.111,-0.16 0.09,-0.293c-0.01,-0.062 -0.052,-0.12 -0.064,-0.187c-0.022,-0.114 0.002,-0.224 0,-0.337c-0.003,-0.2 0.017,-0.379 -0.078,-0.55c-0.38,-0.688 -1.236,-0.929 -1.975,-0.789c-0.18,0.034 -0.287,0.126 -0.442,0.207c-0.17,0.088 -0.139,0.166 -0.318,0.224c-0.081,0.026 -0.216,0.124 -0.215,0.224c0.002,0.115 0.005,0.051 0.012,0.169c-0.021,0.011 -0.021,-0.005 -0.03,-0.025" fill="#FFFFFF"/>
      <path id="svg_60" d="m8.156,-41.042c0.018,0.072 0.007,0.127 -0.026,0.19c-0.053,0.101 -0.112,0.062 -0.165,0.128c-0.05,0.062 -0.099,0.276 -0.079,0.362c-0.169,0.058 -0.009,0.227 -0.015,0.35c-0.002,0.05 -0.041,0.105 -0.045,0.161c-0.01,0.119 0.017,0.266 0.068,0.37c0.097,0.198 0.268,0.413 0.435,0.544c0.19,0.148 0.365,0.572 0.608,0.631c0.177,0.042 0.384,-0.104 0.543,-0.143c0.18,-0.043 0.397,0.01 0.571,-0.053c0.222,-0.079 0.127,-0.337 0.288,-0.45c0.104,-0.074 0.287,-0.01 0.406,-0.051c0.2,-0.069 0.339,-0.263 0.376,-0.46c0.016,-0.082 0.01,-0.145 0.039,-0.221c0.038,-0.103 0.111,-0.16 0.09,-0.293c-0.01,-0.062 -0.052,-0.12 -0.064,-0.187c-0.022,-0.114 0.002,-0.224 0,-0.337c-0.003,-0.2 0.017,-0.379 -0.078,-0.55c-0.38,-0.688 -1.236,-0.929 -1.975,-0.789c-0.18,0.034 -0.287,0.126 -0.442,0.207c-0.17,0.088 -0.139,0.166 -0.318,0.224c-0.081,0.026 -0.216,0.124 -0.215,0.224c0.001,0.115 0.005,0.051 0.012,0.169c-0.02,0.012 -0.021,-0.004 -0.03,-0.024" fill="#FFFFFF"/>
      <path id="svg_61" d="m0.495,-41.042c0.018,0.072 0.007,0.127 -0.026,0.19c-0.053,0.101 -0.112,0.062 -0.165,0.128c-0.05,0.062 -0.099,0.276 -0.079,0.362c-0.169,0.058 -0.01,0.227 -0.015,0.35c-0.002,0.05 -0.041,0.105 -0.045,0.161c-0.01,0.119 0.017,0.266 0.068,0.37c0.097,0.198 0.268,0.413 0.435,0.544c0.19,0.148 0.365,0.572 0.608,0.631c0.177,0.042 0.384,-0.104 0.543,-0.143c0.18,-0.043 0.397,0.01 0.571,-0.053c0.222,-0.079 0.127,-0.337 0.288,-0.45c0.104,-0.074 0.287,-0.01 0.406,-0.051c0.2,-0.069 0.339,-0.263 0.376,-0.46c0.016,-0.082 0.01,-0.145 0.039,-0.221c0.039,-0.103 0.111,-0.16 0.09,-0.293c-0.01,-0.062 -0.052,-0.12 -0.064,-0.187c-0.022,-0.114 0.002,-0.224 0,-0.337c-0.003,-0.2 0.017,-0.379 -0.078,-0.55c-0.38,-0.688 -1.236,-0.929 -1.975,-0.789c-0.18,0.034 -0.287,0.126 -0.442,0.207c-0.17,0.088 -0.139,0.166 -0.318,0.224c-0.081,0.026 -0.216,0.124 -0.215,0.224c0.001,0.115 0.005,0.051 0.012,0.169c-0.021,0.011 -0.021,-0.005 -0.03,-0.025" fill="#FFFFFF"/>
     </g>
     <g id="svg_62">
      <path id="svg_63" d="m69.439,-33.39c0.017,0.072 0.007,0.127 -0.026,0.19c-0.053,0.101 -0.112,0.062 -0.165,0.128c-0.05,0.062 -0.099,0.276 -0.079,0.362c-0.169,0.058 -0.01,0.227 -0.015,0.35c-0.002,0.05 -0.041,0.106 -0.045,0.161c-0.01,0.119 0.017,0.266 0.068,0.37c0.097,0.198 0.268,0.413 0.435,0.544c0.19,0.149 0.365,0.572 0.608,0.631c0.177,0.042 0.384,-0.104 0.543,-0.143c0.18,-0.043 0.397,0.01 0.571,-0.053c0.222,-0.079 0.127,-0.337 0.288,-0.45c0.104,-0.074 0.287,-0.01 0.406,-0.051c0.2,-0.069 0.339,-0.263 0.376,-0.46c0.016,-0.082 0.01,-0.144 0.039,-0.221c0.039,-0.103 0.111,-0.16 0.09,-0.293c-0.01,-0.062 -0.052,-0.12 -0.064,-0.187c-0.022,-0.114 0.002,-0.224 0.001,-0.337c-0.003,-0.2 0.017,-0.379 -0.078,-0.55c-0.38,-0.688 -1.236,-0.929 -1.975,-0.789c-0.18,0.034 -0.287,0.126 -0.442,0.207c-0.17,0.088 -0.139,0.166 -0.318,0.224c-0.081,0.026 -0.216,0.124 -0.215,0.224c0.001,0.115 0.005,0.051 0.012,0.169c-0.021,0.011 -0.021,-0.005 -0.03,-0.025" fill="#FFFFFF"/>
      <path id="svg_64" d="m61.778,-33.39c0.018,0.072 0.007,0.127 -0.026,0.19c-0.053,0.101 -0.112,0.062 -0.165,0.128c-0.05,0.062 -0.099,0.276 -0.079,0.362c-0.169,0.058 -0.009,0.227 -0.015,0.35c-0.002,0.05 -0.041,0.106 -0.045,0.161c-0.01,0.119 0.017,0.266 0.068,0.37c0.097,0.198 0.268,0.413 0.435,0.544c0.19,0.149 0.365,0.572 0.608,0.631c0.177,0.042 0.384,-0.104 0.543,-0.143c0.18,-0.043 0.397,0.01 0.571,-0.053c0.222,-0.079 0.127,-0.337 0.288,-0.45c0.104,-0.074 0.287,-0.01 0.406,-0.051c0.2,-0.069 0.339,-0.263 0.376,-0.46c0.016,-0.082 0.01,-0.144 0.039,-0.221c0.039,-0.103 0.111,-0.16 0.09,-0.293c-0.01,-0.062 -0.052,-0.12 -0.064,-0.187c-0.022,-0.114 0.002,-0.224 0,-0.337c-0.003,-0.2 0.017,-0.379 -0.078,-0.55c-0.38,-0.688 -1.236,-0.929 -1.975,-0.789c-0.18,0.034 -0.287,0.126 -0.442,0.207c-0.17,0.088 -0.139,0.166 -0.318,0.224c-0.081,0.026 -0.216,0.124 -0.215,0.224c0.001,0.115 0.005,0.051 0.012,0.169c-0.021,0.011 -0.021,-0.005 -0.03,-0.025" fill="#FFFFFF"/>
      <path id="svg_65" d="m54.118,-33.39c0.018,0.072 0.007,0.127 -0.026,0.19c-0.053,0.101 -0.112,0.062 -0.165,0.128c-0.05,0.062 -0.099,0.276 -0.079,0.362c-0.169,0.058 -0.009,0.227 -0.015,0.35c-0.002,0.05 -0.041,0.106 -0.045,0.161c-0.01,0.119 0.017,0.266 0.068,0.37c0.097,0.198 0.268,0.413 0.435,0.544c0.19,0.149 0.365,0.572 0.608,0.631c0.177,0.042 0.384,-0.104 0.543,-0.143c0.18,-0.043 0.397,0.01 0.571,-0.053c0.222,-0.079 0.127,-0.337 0.288,-0.45c0.104,-0.074 0.287,-0.01 0.406,-0.051c0.2,-0.069 0.339,-0.263 0.376,-0.46c0.016,-0.082 0.01,-0.144 0.039,-0.221c0.038,-0.103 0.111,-0.16 0.09,-0.293c-0.01,-0.062 -0.052,-0.12 -0.064,-0.187c-0.022,-0.114 0.002,-0.224 0,-0.337c-0.003,-0.2 0.017,-0.379 -0.078,-0.55c-0.38,-0.688 -1.236,-0.929 -1.975,-0.789c-0.18,0.034 -0.287,0.126 -0.442,0.207c-0.17,0.088 -0.139,0.166 -0.318,0.224c-0.081,0.026 -0.216,0.124 -0.215,0.224c0.001,0.115 0.005,0.051 0.012,0.169c-0.021,0.011 -0.021,-0.005 -0.03,-0.025" fill="#FFFFFF"/>
      <path id="svg_66" d="m46.458,-33.39c0.018,0.072 0.007,0.127 -0.026,0.19c-0.053,0.101 -0.112,0.062 -0.165,0.128c-0.05,0.062 -0.099,0.276 -0.079,0.362c-0.169,0.058 -0.009,0.227 -0.015,0.35c-0.003,0.05 -0.041,0.106 -0.045,0.161c-0.01,0.119 0.017,0.266 0.068,0.37c0.097,0.198 0.268,0.413 0.435,0.544c0.19,0.149 0.365,0.572 0.608,0.631c0.177,0.042 0.384,-0.104 0.543,-0.143c0.18,-0.043 0.397,0.01 0.571,-0.053c0.222,-0.079 0.127,-0.337 0.288,-0.45c0.104,-0.074 0.287,-0.01 0.406,-0.051c0.2,-0.069 0.339,-0.263 0.376,-0.46c0.016,-0.082 0.01,-0.144 0.039,-0.221c0.039,-0.103 0.111,-0.16 0.09,-0.293c-0.01,-0.062 -0.052,-0.12 -0.064,-0.187c-0.022,-0.114 0.002,-0.224 0,-0.337c-0.003,-0.2 0.017,-0.379 -0.078,-0.55c-0.38,-0.688 -1.236,-0.929 -1.975,-0.789c-0.18,0.034 -0.287,0.126 -0.442,0.207c-0.17,0.088 -0.139,0.166 -0.318,0.224c-0.081,0.026 -0.216,0.124 -0.215,0.224c0.001,0.115 0.005,0.051 0.012,0.169c-0.021,0.011 -0.021,-0.005 -0.03,-0.025" fill="#FFFFFF"/>
      <path id="svg_67" d="m38.797,-33.39c0.017,0.072 0.007,0.127 -0.026,0.19c-0.053,0.101 -0.112,0.062 -0.165,0.128c-0.05,0.062 -0.099,0.276 -0.079,0.362c-0.169,0.058 -0.009,0.227 -0.015,0.35c-0.002,0.05 -0.041,0.106 -0.045,0.161c-0.01,0.119 0.017,0.266 0.068,0.37c0.097,0.198 0.268,0.413 0.435,0.544c0.19,0.149 0.365,0.572 0.608,0.631c0.177,0.042 0.384,-0.104 0.543,-0.143c0.18,-0.043 0.397,0.01 0.571,-0.053c0.222,-0.079 0.127,-0.337 0.288,-0.45c0.104,-0.074 0.287,-0.01 0.406,-0.051c0.2,-0.069 0.339,-0.263 0.376,-0.46c0.016,-0.082 0.01,-0.144 0.039,-0.221c0.039,-0.103 0.111,-0.16 0.09,-0.293c-0.01,-0.062 -0.052,-0.12 -0.065,-0.187c-0.022,-0.114 0.002,-0.224 0,-0.337c-0.003,-0.2 0.017,-0.379 -0.078,-0.55c-0.38,-0.688 -1.236,-0.929 -1.975,-0.789c-0.18,0.034 -0.287,0.126 -0.442,0.207c-0.17,0.088 -0.139,0.166 -0.318,0.224c-0.081,0.026 -0.216,0.124 -0.215,0.224c0.001,0.115 0.005,0.051 0.012,0.169c-0.021,0.011 -0.021,-0.005 -0.03,-0.025" fill="#FFFFFF"/>
      <path id="svg_68" d="m31.137,-33.39c0.018,0.072 0.007,0.127 -0.026,0.19c-0.053,0.101 -0.112,0.062 -0.165,0.128c-0.05,0.062 -0.099,0.276 -0.079,0.362c-0.169,0.058 -0.009,0.227 -0.015,0.35c-0.003,0.05 -0.041,0.106 -0.045,0.161c-0.01,0.119 0.017,0.266 0.068,0.37c0.097,0.198 0.268,0.413 0.435,0.544c0.19,0.149 0.365,0.572 0.608,0.631c0.177,0.042 0.384,-0.104 0.543,-0.143c0.18,-0.043 0.397,0.01 0.571,-0.053c0.222,-0.079 0.127,-0.337 0.288,-0.45c0.104,-0.074 0.287,-0.01 0.406,-0.051c0.2,-0.069 0.339,-0.263 0.376,-0.46c0.016,-0.082 0.01,-0.144 0.039,-0.221c0.039,-0.103 0.111,-0.16 0.09,-0.293c-0.01,-0.062 -0.052,-0.12 -0.064,-0.187c-0.022,-0.114 0.002,-0.224 0,-0.337c-0.003,-0.2 0.017,-0.379 -0.078,-0.55c-0.38,-0.688 -1.236,-0.929 -1.975,-0.789c-0.18,0.034 -0.287,0.126 -0.442,0.207c-0.17,0.088 -0.139,0.166 -0.318,0.224c-0.081,0.026 -0.216,0.124 -0.215,0.224c0.001,0.115 0.005,0.051 0.012,0.169c-0.021,0.011 -0.021,-0.005 -0.03,-0.025" fill="#FFFFFF"/>
      <path id="svg_69" d="m23.477,-33.39c0.017,0.072 0.007,0.127 -0.026,0.19c-0.053,0.101 -0.112,0.062 -0.165,0.128c-0.05,0.062 -0.099,0.276 -0.079,0.362c-0.169,0.058 -0.009,0.227 -0.015,0.35c-0.002,0.05 -0.041,0.106 -0.045,0.161c-0.01,0.119 0.017,0.266 0.068,0.37c0.097,0.198 0.268,0.413 0.435,0.544c0.19,0.149 0.365,0.572 0.608,0.631c0.177,0.042 0.384,-0.104 0.543,-0.143c0.18,-0.043 0.397,0.01 0.571,-0.053c0.222,-0.079 0.127,-0.337 0.288,-0.45c0.104,-0.074 0.287,-0.01 0.406,-0.051c0.2,-0.069 0.339,-0.263 0.376,-0.46c0.016,-0.082 0.01,-0.144 0.039,-0.221c0.038,-0.103 0.111,-0.16 0.09,-0.293c-0.01,-0.062 -0.052,-0.12 -0.065,-0.187c-0.022,-0.114 0.002,-0.224 0,-0.337c-0.003,-0.2 0.017,-0.379 -0.078,-0.55c-0.38,-0.688 -1.236,-0.929 -1.975,-0.789c-0.18,0.034 -0.287,0.126 -0.442,0.207c-0.17,0.088 -0.139,0.166 -0.318,0.224c-0.081,0.026 -0.216,0.124 -0.215,0.224c0.002,0.115 0.005,0.051 0.012,0.169c-0.021,0.011 -0.021,-0.005 -0.03,-0.025" fill="#FFFFFF"/>
      <path id="svg_70" d="m15.816,-33.39c0.018,0.072 0.007,0.127 -0.026,0.19c-0.053,0.101 -0.112,0.062 -0.165,0.128c-0.05,0.062 -0.099,0.276 -0.079,0.362c-0.169,0.058 -0.009,0.227 -0.015,0.35c-0.002,0.05 -0.041,0.106 -0.045,0.161c-0.01,0.119 0.017,0.266 0.068,0.37c0.097,0.198 0.268,0.413 0.435,0.544c0.19,0.149 0.365,0.572 0.608,0.631c0.177,0.042 0.384,-0.104 0.543,-0.143c0.18,-0.043 0.397,0.01 0.571,-0.053c0.222,-0.079 0.128,-0.337 0.288,-0.45c0.104,-0.074 0.287,-0.01 0.406,-0.051c0.2,-0.069 0.339,-0.263 0.376,-0.46c0.016,-0.082 0.01,-0.144 0.039,-0.221c0.039,-0.103 0.111,-0.16 0.09,-0.293c-0.01,-0.062 -0.052,-0.12 -0.064,-0.187c-0.022,-0.114 0.002,-0.224 0,-0.337c-0.003,-0.2 0.017,-0.379 -0.078,-0.55c-0.38,-0.688 -1.236,-0.929 -1.975,-0.789c-0.18,0.034 -0.287,0.126 -0.442,0.207c-0.17,0.088 -0.139,0.166 -0.318,0.224c-0.081,0.026 -0.216,0.124 -0.215,0.224c0.002,0.115 0.005,0.051 0.012,0.169c-0.021,0.011 -0.021,-0.005 -0.03,-0.025" fill="#FFFFFF"/>
      <path id="svg_71" d="m8.156,-33.39c0.018,0.072 0.007,0.127 -0.026,0.19c-0.053,0.101 -0.112,0.062 -0.165,0.128c-0.05,0.062 -0.099,0.276 -0.079,0.362c-0.169,0.058 -0.009,0.227 -0.015,0.35c-0.002,0.05 -0.041,0.106 -0.045,0.161c-0.01,0.119 0.017,0.266 0.068,0.37c0.097,0.198 0.268,0.413 0.435,0.544c0.19,0.149 0.365,0.572 0.608,0.631c0.177,0.042 0.384,-0.104 0.543,-0.143c0.18,-0.043 0.397,0.01 0.571,-0.053c0.222,-0.079 0.127,-0.337 0.288,-0.45c0.104,-0.074 0.287,-0.01 0.406,-0.051c0.2,-0.069 0.339,-0.263 0.376,-0.46c0.016,-0.082 0.01,-0.144 0.039,-0.221c0.038,-0.103 0.111,-0.16 0.09,-0.293c-0.01,-0.062 -0.052,-0.12 -0.064,-0.187c-0.022,-0.114 0.002,-0.224 0,-0.337c-0.003,-0.2 0.017,-0.379 -0.078,-0.55c-0.38,-0.688 -1.236,-0.929 -1.975,-0.789c-0.18,0.034 -0.287,0.126 -0.442,0.207c-0.17,0.088 -0.139,0.166 -0.318,0.224c-0.081,0.026 -0.216,0.124 -0.215,0.224c0.001,0.115 0.005,0.051 0.012,0.169c-0.021,0.011 -0.021,-0.005 -0.03,-0.025" fill="#FFFFFF"/>
      <path id="svg_72" d="m0.495,-33.39c0.018,0.072 0.007,0.127 -0.026,0.19c-0.053,0.101 -0.112,0.062 -0.165,0.128c-0.05,0.062 -0.099,0.276 -0.079,0.362c-0.169,0.058 -0.01,0.227 -0.015,0.35c-0.002,0.05 -0.041,0.106 -0.045,0.161c-0.01,0.119 0.017,0.266 0.068,0.37c0.097,0.198 0.268,0.413 0.435,0.544c0.19,0.149 0.365,0.572 0.608,0.631c0.177,0.042 0.384,-0.104 0.543,-0.143c0.18,-0.043 0.397,0.01 0.571,-0.053c0.222,-0.079 0.127,-0.337 0.288,-0.45c0.104,-0.074 0.287,-0.01 0.406,-0.051c0.2,-0.069 0.339,-0.263 0.376,-0.46c0.016,-0.082 0.01,-0.144 0.039,-0.221c0.039,-0.103 0.111,-0.16 0.09,-0.293c-0.01,-0.062 -0.052,-0.12 -0.064,-0.187c-0.022,-0.114 0.002,-0.224 0,-0.337c-0.003,-0.2 0.017,-0.379 -0.078,-0.55c-0.38,-0.688 -1.236,-0.929 -1.975,-0.789c-0.18,0.034 -0.287,0.126 -0.442,0.207c-0.17,0.088 -0.139,0.166 -0.318,0.224c-0.081,0.026 -0.216,0.124 -0.215,0.224c0.003,0.117 0.006,0.053 0.013,0.171c-0.021,0.011 -0.021,-0.005 -0.03,-0.025" fill="#FFFFFF"/>
     </g>
     <g id="svg_73">
      <path id="svg_74" d="m69.439,-25.736c0.017,0.072 0.007,0.127 -0.026,0.19c-0.053,0.101 -0.112,0.062 -0.165,0.128c-0.05,0.062 -0.099,0.276 -0.079,0.362c-0.169,0.058 -0.01,0.227 -0.015,0.35c-0.002,0.05 -0.041,0.106 -0.045,0.161c-0.01,0.119 0.017,0.266 0.068,0.37c0.097,0.198 0.268,0.413 0.435,0.544c0.19,0.148 0.365,0.572 0.608,0.631c0.177,0.042 0.384,-0.104 0.543,-0.143c0.18,-0.043 0.397,0.01 0.571,-0.053c0.222,-0.079 0.127,-0.337 0.288,-0.45c0.104,-0.074 0.287,-0.01 0.406,-0.051c0.2,-0.069 0.339,-0.263 0.376,-0.46c0.016,-0.082 0.01,-0.145 0.039,-0.221c0.039,-0.102 0.111,-0.16 0.09,-0.293c-0.01,-0.061 -0.052,-0.12 -0.064,-0.186c-0.022,-0.114 0.002,-0.224 0.001,-0.337c-0.003,-0.2 0.017,-0.379 -0.078,-0.55c-0.38,-0.688 -1.236,-0.929 -1.975,-0.789c-0.18,0.034 -0.287,0.126 -0.442,0.207c-0.17,0.088 -0.139,0.166 -0.318,0.224c-0.081,0.026 -0.216,0.124 -0.215,0.224c0.001,0.115 0.005,0.051 0.012,0.169c-0.021,0.011 -0.021,-0.005 -0.03,-0.025" fill="#FFFFFF"/>
      <path id="svg_75" d="m61.778,-25.736c0.018,0.072 0.007,0.127 -0.026,0.19c-0.053,0.101 -0.112,0.062 -0.165,0.128c-0.05,0.062 -0.099,0.276 -0.079,0.362c-0.169,0.058 -0.009,0.227 -0.015,0.35c-0.002,0.05 -0.041,0.106 -0.045,0.161c-0.01,0.119 0.017,0.266 0.068,0.37c0.097,0.198 0.268,0.413 0.435,0.544c0.19,0.148 0.365,0.572 0.608,0.631c0.177,0.042 0.384,-0.104 0.543,-0.143c0.18,-0.043 0.397,0.01 0.571,-0.053c0.222,-0.079 0.127,-0.337 0.288,-0.45c0.104,-0.074 0.287,-0.01 0.406,-0.051c0.2,-0.069 0.339,-0.263 0.376,-0.46c0.016,-0.082 0.01,-0.145 0.039,-0.221c0.039,-0.102 0.111,-0.16 0.09,-0.293c-0.01,-0.061 -0.052,-0.12 -0.064,-0.186c-0.022,-0.114 0.002,-0.224 0,-0.337c-0.003,-0.2 0.017,-0.379 -0.078,-0.55c-0.38,-0.688 -1.236,-0.929 -1.975,-0.789c-0.18,0.034 -0.287,0.126 -0.442,0.207c-0.17,0.088 -0.139,0.166 -0.318,0.224c-0.081,0.026 -0.216,0.124 -0.215,0.224c0.001,0.115 0.005,0.051 0.012,0.169c-0.021,0.011 -0.021,-0.005 -0.03,-0.025" fill="#FFFFFF"/>
      <path id="svg_76" d="m54.118,-25.736c0.018,0.072 0.007,0.127 -0.026,0.19c-0.053,0.101 -0.112,0.062 -0.165,0.128c-0.05,0.062 -0.099,0.276 -0.079,0.362c-0.169,0.058 -0.009,0.227 -0.015,0.35c-0.002,0.05 -0.041,0.106 -0.045,0.161c-0.01,0.119 0.017,0.266 0.068,0.37c0.097,0.198 0.268,0.413 0.435,0.544c0.19,0.148 0.365,0.572 0.608,0.631c0.177,0.042 0.384,-0.104 0.543,-0.143c0.18,-0.043 0.397,0.01 0.571,-0.053c0.222,-0.079 0.127,-0.337 0.288,-0.45c0.104,-0.074 0.287,-0.01 0.406,-0.051c0.2,-0.069 0.339,-0.263 0.376,-0.46c0.016,-0.082 0.01,-0.145 0.039,-0.221c0.038,-0.102 0.111,-0.16 0.09,-0.293c-0.01,-0.061 -0.052,-0.12 -0.064,-0.186c-0.022,-0.114 0.002,-0.224 0,-0.337c-0.003,-0.2 0.017,-0.379 -0.078,-0.55c-0.38,-0.688 -1.236,-0.929 -1.975,-0.789c-0.18,0.034 -0.287,0.126 -0.442,0.207c-0.17,0.088 -0.139,0.166 -0.318,0.224c-0.081,0.026 -0.216,0.124 -0.215,0.224c0.001,0.115 0.005,0.051 0.012,0.169c-0.021,0.011 -0.021,-0.005 -0.03,-0.025" fill="#FFFFFF"/>
      <path id="svg_77" d="m46.458,-25.736c0.018,0.072 0.007,0.127 -0.026,0.19c-0.053,0.101 -0.112,0.062 -0.165,0.128c-0.05,0.062 -0.099,0.276 -0.079,0.362c-0.169,0.058 -0.009,0.227 -0.015,0.35c-0.003,0.05 -0.041,0.106 -0.045,0.161c-0.01,0.119 0.017,0.266 0.068,0.37c0.097,0.198 0.268,0.413 0.435,0.544c0.19,0.148 0.365,0.572 0.608,0.631c0.177,0.042 0.384,-0.104 0.543,-0.143c0.18,-0.043 0.397,0.01 0.571,-0.053c0.222,-0.079 0.127,-0.337 0.288,-0.45c0.104,-0.074 0.287,-0.01 0.406,-0.051c0.2,-0.069 0.339,-0.263 0.376,-0.46c0.016,-0.082 0.01,-0.145 0.039,-0.221c0.039,-0.102 0.111,-0.16 0.09,-0.293c-0.01,-0.061 -0.052,-0.12 -0.064,-0.186c-0.022,-0.114 0.002,-0.224 0,-0.337c-0.003,-0.2 0.017,-0.379 -0.078,-0.55c-0.38,-0.688 -1.236,-0.929 -1.975,-0.789c-0.18,0.034 -0.287,0.126 -0.442,0.207c-0.17,0.088 -0.139,0.166 -0.318,0.224c-0.081,0.026 -0.216,0.124 -0.215,0.224c0.001,0.115 0.005,0.051 0.012,0.169c-0.021,0.011 -0.021,-0.005 -0.03,-0.025" fill="#FFFFFF"/>
      <path id="svg_78" d="m38.797,-25.736c0.017,0.072 0.007,0.127 -0.026,0.19c-0.053,0.101 -0.112,0.062 -0.165,0.128c-0.05,0.062 -0.099,0.276 -0.079,0.362c-0.169,0.058 -0.009,0.227 -0.015,0.35c-0.002,0.05 -0.041,0.106 -0.045,0.161c-0.01,0.119 0.017,0.266 0.068,0.37c0.097,0.198 0.268,0.413 0.435,0.544c0.19,0.148 0.365,0.572 0.608,0.631c0.177,0.042 0.384,-0.104 0.543,-0.143c0.18,-0.043 0.397,0.01 0.571,-0.053c0.222,-0.079 0.127,-0.337 0.288,-0.45c0.104,-0.074 0.287,-0.01 0.406,-0.051c0.2,-0.069 0.339,-0.263 0.376,-0.46c0.016,-0.082 0.01,-0.145 0.039,-0.221c0.039,-0.102 0.111,-0.16 0.09,-0.293c-0.01,-0.061 -0.052,-0.12 -0.065,-0.186c-0.022,-0.114 0.002,-0.224 0,-0.337c-0.003,-0.2 0.017,-0.379 -0.078,-0.55c-0.38,-0.688 -1.236,-0.929 -1.975,-0.789c-0.18,0.034 -0.287,0.126 -0.442,0.207c-0.17,0.088 -0.139,0.166 -0.318,0.224c-0.081,0.026 -0.216,0.124 -0.215,0.224c0.001,0.115 0.005,0.051 0.012,0.169c-0.021,0.011 -0.021,-0.005 -0.03,-0.025" fill="#FFFFFF"/>
      <path id="svg_79" d="m31.137,-25.736c0.018,0.072 0.007,0.127 -0.026,0.19c-0.053,0.101 -0.112,0.062 -0.165,0.128c-0.05,0.062 -0.099,0.276 -0.079,0.362c-0.169,0.058 -0.009,0.227 -0.015,0.35c-0.003,0.05 -0.041,0.106 -0.045,0.161c-0.01,0.119 0.017,0.266 0.068,0.37c0.097,0.198 0.268,0.413 0.435,0.544c0.19,0.148 0.365,0.572 0.608,0.631c0.177,0.042 0.384,-0.104 0.543,-0.143c0.18,-0.043 0.397,0.01 0.571,-0.053c0.222,-0.079 0.127,-0.337 0.288,-0.45c0.104,-0.074 0.287,-0.01 0.406,-0.051c0.2,-0.069 0.339,-0.263 0.376,-0.46c0.016,-0.082 0.01,-0.145 0.039,-0.221c0.039,-0.102 0.111,-0.16 0.09,-0.293c-0.01,-0.061 -0.052,-0.12 -0.064,-0.186c-0.022,-0.114 0.002,-0.224 0,-0.337c-0.003,-0.2 0.017,-0.379 -0.078,-0.55c-0.38,-0.688 -1.236,-0.929 -1.975,-0.789c-0.18,0.034 -0.287,0.126 -0.442,0.207c-0.17,0.088 -0.139,0.166 -0.318,0.224c-0.081,0.026 -0.216,0.124 -0.215,0.224c0.001,0.115 0.005,0.051 0.012,0.169c-0.021,0.011 -0.021,-0.005 -0.03,-0.025" fill="#FFFFFF"/>
      <path id="svg_80" d="m23.477,-25.736c0.017,0.072 0.007,0.127 -0.026,0.19c-0.053,0.101 -0.112,0.062 -0.165,0.128c-0.05,0.062 -0.099,0.276 -0.079,0.362c-0.169,0.058 -0.009,0.227 -0.015,0.35c-0.002,0.05 -0.041,0.106 -0.045,0.161c-0.01,0.119 0.017,0.266 0.068,0.37c0.097,0.198 0.268,0.413 0.435,0.544c0.19,0.148 0.365,0.572 0.608,0.631c0.177,0.042 0.384,-0.104 0.543,-0.143c0.18,-0.043 0.397,0.01 0.571,-0.053c0.222,-0.079 0.127,-0.337 0.288,-0.45c0.104,-0.074 0.287,-0.01 0.406,-0.051c0.2,-0.069 0.339,-0.263 0.376,-0.46c0.016,-0.082 0.01,-0.145 0.039,-0.221c0.038,-0.102 0.111,-0.16 0.09,-0.293c-0.01,-0.061 -0.052,-0.12 -0.065,-0.186c-0.022,-0.114 0.002,-0.224 0,-0.337c-0.003,-0.2 0.017,-0.379 -0.078,-0.55c-0.38,-0.688 -1.236,-0.929 -1.975,-0.789c-0.18,0.034 -0.287,0.126 -0.442,0.207c-0.17,0.088 -0.139,0.166 -0.318,0.224c-0.081,0.026 -0.216,0.124 -0.215,0.224c0.002,0.115 0.005,0.051 0.012,0.169c-0.021,0.011 -0.021,-0.005 -0.03,-0.025" fill="#FFFFFF"/>
      <path id="svg_81" d="m15.816,-25.736c0.018,0.072 0.007,0.127 -0.026,0.19c-0.053,0.101 -0.112,0.062 -0.165,0.128c-0.05,0.062 -0.099,0.276 -0.079,0.362c-0.169,0.058 -0.009,0.227 -0.015,0.35c-0.002,0.05 -0.041,0.106 -0.045,0.161c-0.01,0.119 0.017,0.266 0.068,0.37c0.097,0.198 0.268,0.413 0.435,0.544c0.19,0.148 0.365,0.572 0.608,0.631c0.177,0.042 0.384,-0.104 0.543,-0.143c0.18,-0.043 0.397,0.01 0.571,-0.053c0.222,-0.079 0.128,-0.337 0.288,-0.45c0.104,-0.074 0.287,-0.01 0.406,-0.051c0.2,-0.069 0.339,-0.263 0.376,-0.46c0.016,-0.082 0.01,-0.145 0.039,-0.221c0.039,-0.102 0.111,-0.16 0.09,-0.293c-0.01,-0.061 -0.052,-0.12 -0.064,-0.186c-0.022,-0.114 0.002,-0.224 0,-0.337c-0.003,-0.2 0.017,-0.379 -0.078,-0.55c-0.38,-0.688 -1.236,-0.929 -1.975,-0.789c-0.18,0.034 -0.287,0.126 -0.442,0.207c-0.17,0.088 -0.139,0.166 -0.318,0.224c-0.081,0.026 -0.216,0.124 -0.215,0.224c0.002,0.115 0.005,0.051 0.012,0.169c-0.021,0.011 -0.021,-0.005 -0.03,-0.025" fill="#FFFFFF"/>
      <path id="svg_82" d="m8.156,-25.736c0.018,0.072 0.007,0.127 -0.026,0.19c-0.053,0.101 -0.112,0.062 -0.165,0.128c-0.05,0.062 -0.099,0.276 -0.079,0.362c-0.169,0.058 -0.009,0.227 -0.015,0.35c-0.002,0.05 -0.041,0.106 -0.045,0.161c-0.01,0.119 0.017,0.266 0.068,0.37c0.097,0.198 0.268,0.413 0.435,0.544c0.19,0.148 0.365,0.572 0.608,0.631c0.177,0.042 0.384,-0.104 0.543,-0.143c0.18,-0.043 0.397,0.01 0.571,-0.053c0.222,-0.079 0.127,-0.337 0.288,-0.45c0.104,-0.074 0.287,-0.01 0.406,-0.051c0.2,-0.069 0.339,-0.263 0.376,-0.46c0.016,-0.082 0.01,-0.145 0.039,-0.221c0.038,-0.102 0.111,-0.16 0.09,-0.293c-0.01,-0.061 -0.052,-0.12 -0.064,-0.186c-0.022,-0.114 0.002,-0.224 0,-0.337c-0.003,-0.2 0.017,-0.379 -0.078,-0.55c-0.38,-0.688 -1.236,-0.929 -1.975,-0.789c-0.18,0.034 -0.287,0.126 -0.442,0.207c-0.17,0.088 -0.139,0.166 -0.318,0.224c-0.081,0.026 -0.216,0.124 -0.215,0.224c0.001,0.115 0.005,0.051 0.012,0.169c-0.021,0.011 -0.021,-0.005 -0.03,-0.025" fill="#FFFFFF"/>
      <path id="svg_83" d="m0.495,-25.736c0.018,0.072 0.007,0.127 -0.026,0.19c-0.053,0.101 -0.112,0.062 -0.165,0.128c-0.05,0.062 -0.099,0.276 -0.079,0.362c-0.169,0.058 -0.01,0.227 -0.015,0.35c-0.002,0.05 -0.041,0.106 -0.045,0.161c-0.01,0.119 0.017,0.266 0.068,0.37c0.097,0.198 0.268,0.413 0.435,0.544c0.19,0.148 0.365,0.572 0.608,0.631c0.177,0.042 0.384,-0.104 0.543,-0.143c0.18,-0.043 0.397,0.01 0.571,-0.053c0.222,-0.079 0.127,-0.337 0.288,-0.45c0.104,-0.074 0.287,-0.01 0.406,-0.051c0.2,-0.069 0.339,-0.263 0.376,-0.46c0.016,-0.082 0.01,-0.145 0.039,-0.221c0.039,-0.102 0.111,-0.16 0.09,-0.293c-0.01,-0.061 -0.052,-0.12 -0.064,-0.186c-0.022,-0.114 0.002,-0.224 0,-0.337c-0.003,-0.2 0.017,-0.379 -0.078,-0.55c-0.38,-0.688 -1.236,-0.929 -1.975,-0.789c-0.18,0.034 -0.287,0.126 -0.442,0.207c-0.17,0.088 -0.139,0.166 -0.318,0.224c-0.081,0.026 -0.216,0.124 -0.215,0.224c0.001,0.115 0.005,0.051 0.012,0.169c-0.021,0.011 -0.021,-0.005 -0.03,-0.025" fill="#FFFFFF"/>
     </g>
     <g id="svg_84">
      <path id="svg_85" d="m69.439,-18.084c0.017,0.072 0.007,0.127 -0.026,0.19c-0.053,0.101 -0.112,0.062 -0.165,0.128c-0.05,0.062 -0.099,0.276 -0.079,0.362c-0.169,0.058 -0.01,0.226 -0.015,0.35c-0.002,0.05 -0.041,0.105 -0.045,0.161c-0.01,0.119 0.017,0.266 0.068,0.37c0.097,0.198 0.268,0.413 0.435,0.544c0.19,0.148 0.365,0.572 0.608,0.631c0.177,0.042 0.384,-0.104 0.543,-0.142c0.18,-0.043 0.397,0.01 0.571,-0.053c0.222,-0.079 0.127,-0.337 0.288,-0.45c0.104,-0.074 0.287,-0.01 0.406,-0.051c0.2,-0.069 0.339,-0.263 0.376,-0.46c0.016,-0.082 0.01,-0.144 0.039,-0.221c0.039,-0.103 0.111,-0.16 0.09,-0.293c-0.01,-0.062 -0.052,-0.12 -0.064,-0.187c-0.022,-0.114 0.002,-0.224 0.001,-0.337c-0.003,-0.2 0.017,-0.379 -0.078,-0.55c-0.38,-0.688 -1.236,-0.929 -1.975,-0.789c-0.18,0.034 -0.287,0.126 -0.442,0.207c-0.17,0.088 -0.139,0.166 -0.318,0.224c-0.081,0.026 -0.216,0.124 -0.215,0.224c0.001,0.115 0.005,0.051 0.012,0.169c-0.021,0.011 -0.021,-0.005 -0.03,-0.025" fill="#FFFFFF"/>
      <path id="svg_86" d="m61.778,-18.084c0.018,0.072 0.007,0.127 -0.026,0.19c-0.053,0.101 -0.112,0.062 -0.165,0.128c-0.05,0.062 -0.099,0.276 -0.079,0.362c-0.169,0.058 -0.009,0.226 -0.015,0.35c-0.002,0.05 -0.041,0.105 -0.045,0.161c-0.01,0.119 0.017,0.266 0.068,0.37c0.097,0.198 0.268,0.413 0.435,0.544c0.19,0.148 0.365,0.572 0.608,0.631c0.177,0.042 0.384,-0.104 0.543,-0.142c0.18,-0.043 0.397,0.01 0.571,-0.053c0.222,-0.079 0.127,-0.337 0.288,-0.45c0.104,-0.074 0.287,-0.01 0.406,-0.051c0.2,-0.069 0.339,-0.263 0.376,-0.46c0.016,-0.082 0.01,-0.144 0.039,-0.221c0.039,-0.103 0.111,-0.16 0.09,-0.293c-0.01,-0.062 -0.052,-0.12 -0.064,-0.187c-0.022,-0.114 0.002,-0.224 0,-0.337c-0.003,-0.2 0.017,-0.379 -0.078,-0.55c-0.38,-0.688 -1.236,-0.929 -1.975,-0.789c-0.18,0.034 -0.287,0.126 -0.442,0.207c-0.17,0.088 -0.139,0.166 -0.318,0.224c-0.081,0.026 -0.216,0.124 -0.215,0.224c0.001,0.115 0.005,0.051 0.012,0.169c-0.021,0.011 -0.021,-0.005 -0.03,-0.025" fill="#FFFFFF"/>
      <path id="svg_87" d="m54.118,-18.084c0.018,0.072 0.007,0.127 -0.026,0.19c-0.053,0.101 -0.112,0.062 -0.165,0.128c-0.05,0.062 -0.099,0.276 -0.079,0.362c-0.169,0.058 -0.009,0.226 -0.015,0.35c-0.002,0.05 -0.041,0.105 -0.045,0.161c-0.01,0.119 0.017,0.266 0.068,0.37c0.097,0.198 0.268,0.413 0.435,0.544c0.19,0.148 0.365,0.572 0.608,0.631c0.177,0.042 0.384,-0.104 0.543,-0.142c0.18,-0.043 0.397,0.01 0.571,-0.053c0.222,-0.079 0.127,-0.337 0.288,-0.45c0.104,-0.074 0.287,-0.01 0.406,-0.051c0.2,-0.069 0.339,-0.263 0.376,-0.46c0.016,-0.082 0.01,-0.144 0.039,-0.221c0.038,-0.103 0.111,-0.16 0.09,-0.293c-0.01,-0.062 -0.052,-0.12 -0.064,-0.187c-0.022,-0.114 0.002,-0.224 0,-0.337c-0.003,-0.2 0.017,-0.379 -0.078,-0.55c-0.38,-0.688 -1.236,-0.929 -1.975,-0.789c-0.18,0.034 -0.287,0.126 -0.442,0.207c-0.17,0.088 -0.139,0.166 -0.318,0.224c-0.081,0.026 -0.216,0.124 -0.215,0.224c0.001,0.115 0.005,0.051 0.012,0.169c-0.021,0.011 -0.021,-0.005 -0.03,-0.025" fill="#FFFFFF"/>
      <path id="svg_88" d="m46.458,-18.084c0.018,0.072 0.007,0.127 -0.026,0.19c-0.053,0.101 -0.112,0.062 -0.165,0.128c-0.05,0.062 -0.099,0.276 -0.079,0.362c-0.169,0.058 -0.009,0.226 -0.015,0.35c-0.003,0.05 -0.041,0.105 -0.045,0.161c-0.01,0.119 0.017,0.266 0.068,0.37c0.097,0.198 0.268,0.413 0.435,0.544c0.19,0.148 0.365,0.572 0.608,0.631c0.177,0.042 0.384,-0.104 0.543,-0.142c0.18,-0.043 0.397,0.01 0.571,-0.053c0.222,-0.079 0.127,-0.337 0.288,-0.45c0.104,-0.074 0.287,-0.01 0.406,-0.051c0.2,-0.069 0.339,-0.263 0.376,-0.46c0.016,-0.082 0.01,-0.144 0.039,-0.221c0.039,-0.103 0.111,-0.16 0.09,-0.293c-0.01,-0.062 -0.052,-0.12 -0.064,-0.187c-0.022,-0.114 0.002,-0.224 0,-0.337c-0.003,-0.2 0.017,-0.379 -0.078,-0.55c-0.38,-0.688 -1.236,-0.929 -1.975,-0.789c-0.18,0.034 -0.287,0.126 -0.442,0.207c-0.17,0.088 -0.139,0.166 -0.318,0.224c-0.081,0.026 -0.216,0.124 -0.215,0.224c0.001,0.115 0.005,0.051 0.012,0.169c-0.021,0.011 -0.021,-0.005 -0.03,-0.025" fill="#FFFFFF"/>
      <path id="svg_89" d="m38.797,-18.084c0.017,0.072 0.007,0.127 -0.026,0.19c-0.053,0.101 -0.112,0.062 -0.165,0.128c-0.05,0.062 -0.099,0.276 -0.079,0.362c-0.169,0.058 -0.009,0.226 -0.015,0.35c-0.002,0.05 -0.041,0.105 -0.045,0.161c-0.01,0.119 0.017,0.266 0.068,0.37c0.097,0.198 0.268,0.413 0.435,0.544c0.19,0.148 0.365,0.572 0.608,0.631c0.177,0.042 0.384,-0.104 0.543,-0.142c0.18,-0.043 0.397,0.01 0.571,-0.053c0.222,-0.079 0.127,-0.337 0.288,-0.45c0.104,-0.074 0.287,-0.01 0.406,-0.051c0.2,-0.069 0.339,-0.263 0.376,-0.46c0.016,-0.082 0.01,-0.144 0.039,-0.221c0.039,-0.103 0.111,-0.16 0.09,-0.293c-0.01,-0.062 -0.052,-0.12 -0.065,-0.187c-0.022,-0.114 0.002,-0.224 0,-0.337c-0.003,-0.2 0.017,-0.379 -0.078,-0.55c-0.38,-0.688 -1.236,-0.929 -1.975,-0.789c-0.18,0.034 -0.287,0.126 -0.442,0.207c-0.17,0.088 -0.139,0.166 -0.318,0.224c-0.081,0.026 -0.216,0.124 -0.215,0.224c0.001,0.115 0.005,0.051 0.012,0.169c-0.021,0.011 -0.021,-0.005 -0.03,-0.025" fill="#FFFFFF"/>
      <path id="svg_90" d="m31.137,-18.084c0.018,0.072 0.007,0.127 -0.026,0.19c-0.053,0.101 -0.112,0.062 -0.165,0.128c-0.05,0.062 -0.099,0.276 -0.079,0.362c-0.169,0.058 -0.009,0.226 -0.015,0.35c-0.003,0.05 -0.041,0.105 -0.045,0.161c-0.01,0.119 0.017,0.266 0.068,0.37c0.097,0.198 0.268,0.413 0.435,0.544c0.19,0.148 0.365,0.572 0.608,0.631c0.177,0.042 0.384,-0.104 0.543,-0.142c0.18,-0.043 0.397,0.01 0.571,-0.053c0.222,-0.079 0.127,-0.337 0.288,-0.45c0.104,-0.074 0.287,-0.01 0.406,-0.051c0.2,-0.069 0.339,-0.263 0.376,-0.46c0.016,-0.082 0.01,-0.144 0.039,-0.221c0.039,-0.103 0.111,-0.16 0.09,-0.293c-0.01,-0.062 -0.052,-0.12 -0.064,-0.187c-0.022,-0.114 0.002,-0.224 0,-0.337c-0.003,-0.2 0.017,-0.379 -0.078,-0.55c-0.38,-0.688 -1.236,-0.929 -1.975,-0.789c-0.18,0.034 -0.287,0.126 -0.442,0.207c-0.17,0.088 -0.139,0.166 -0.318,0.224c-0.081,0.026 -0.216,0.124 -0.215,0.224c0.001,0.115 0.005,0.051 0.012,0.169c-0.021,0.011 -0.021,-0.005 -0.03,-0.025" fill="#FFFFFF"/>
      <path id="svg_91" d="m23.477,-18.084c0.017,0.072 0.007,0.127 -0.026,0.19c-0.053,0.101 -0.112,0.062 -0.165,0.128c-0.05,0.062 -0.099,0.276 -0.079,0.362c-0.169,0.058 -0.009,0.226 -0.015,0.35c-0.002,0.05 -0.041,0.105 -0.045,0.161c-0.01,0.119 0.017,0.266 0.068,0.37c0.097,0.198 0.268,0.413 0.435,0.544c0.19,0.148 0.365,0.572 0.608,0.631c0.177,0.042 0.384,-0.104 0.543,-0.142c0.18,-0.043 0.397,0.01 0.571,-0.053c0.222,-0.079 0.127,-0.337 0.288,-0.45c0.104,-0.074 0.287,-0.01 0.406,-0.051c0.2,-0.069 0.339,-0.263 0.376,-0.46c0.016,-0.082 0.01,-0.144 0.039,-0.221c0.038,-0.103 0.111,-0.16 0.09,-0.293c-0.01,-0.062 -0.052,-0.12 -0.065,-0.187c-0.022,-0.114 0.002,-0.224 0,-0.337c-0.003,-0.2 0.017,-0.379 -0.078,-0.55c-0.38,-0.688 -1.236,-0.929 -1.975,-0.789c-0.18,0.034 -0.287,0.126 -0.442,0.207c-0.17,0.088 -0.139,0.166 -0.318,0.224c-0.081,0.026 -0.216,0.124 -0.215,0.224c0.002,0.115 0.005,0.051 0.012,0.169c-0.021,0.011 -0.021,-0.005 -0.03,-0.025" fill="#FFFFFF"/>
      <path id="svg_92" d="m15.816,-18.084c0.018,0.072 0.007,0.127 -0.026,0.19c-0.053,0.101 -0.112,0.062 -0.165,0.128c-0.05,0.062 -0.099,0.276 -0.079,0.362c-0.169,0.058 -0.009,0.226 -0.015,0.35c-0.002,0.05 -0.041,0.105 -0.045,0.161c-0.01,0.119 0.017,0.266 0.068,0.37c0.097,0.198 0.268,0.413 0.435,0.544c0.19,0.148 0.365,0.572 0.608,0.631c0.177,0.042 0.384,-0.104 0.543,-0.142c0.18,-0.043 0.397,0.01 0.571,-0.053c0.222,-0.079 0.128,-0.337 0.288,-0.45c0.104,-0.074 0.287,-0.01 0.406,-0.051c0.2,-0.069 0.339,-0.263 0.376,-0.46c0.016,-0.082 0.01,-0.144 0.039,-0.221c0.039,-0.103 0.111,-0.16 0.09,-0.293c-0.01,-0.062 -0.052,-0.12 -0.064,-0.187c-0.022,-0.114 0.002,-0.224 0,-0.337c-0.003,-0.2 0.017,-0.379 -0.078,-0.55c-0.38,-0.688 -1.236,-0.929 -1.975,-0.789c-0.18,0.034 -0.287,0.126 -0.442,0.207c-0.17,0.088 -0.139,0.166 -0.318,0.224c-0.081,0.026 -0.216,0.124 -0.215,0.224c0.002,0.115 0.005,0.051 0.012,0.169c-0.021,0.011 -0.021,-0.005 -0.03,-0.025" fill="#FFFFFF"/>
      <path id="svg_93" d="m8.156,-18.084c0.018,0.072 0.007,0.127 -0.026,0.19c-0.053,0.101 -0.112,0.062 -0.165,0.128c-0.05,0.062 -0.099,0.276 -0.079,0.362c-0.169,0.058 -0.009,0.226 -0.015,0.35c-0.002,0.05 -0.041,0.105 -0.045,0.161c-0.01,0.119 0.017,0.266 0.068,0.37c0.097,0.198 0.268,0.413 0.435,0.544c0.19,0.148 0.365,0.572 0.608,0.631c0.177,0.042 0.384,-0.104 0.543,-0.142c0.18,-0.043 0.397,0.01 0.571,-0.053c0.222,-0.079 0.127,-0.337 0.288,-0.45c0.104,-0.074 0.287,-0.01 0.406,-0.051c0.2,-0.069 0.339,-0.263 0.376,-0.46c0.016,-0.082 0.01,-0.144 0.039,-0.221c0.038,-0.103 0.111,-0.16 0.09,-0.293c-0.01,-0.062 -0.052,-0.12 -0.064,-0.187c-0.022,-0.114 0.002,-0.224 0,-0.337c-0.003,-0.2 0.017,-0.379 -0.078,-0.55c-0.38,-0.688 -1.236,-0.929 -1.975,-0.789c-0.18,0.034 -0.287,0.126 -0.442,0.207c-0.17,0.088 -0.139,0.166 -0.318,0.224c-0.081,0.026 -0.216,0.124 -0.215,0.224c0.001,0.115 0.005,0.051 0.012,0.169c-0.021,0.011 -0.021,-0.005 -0.03,-0.025" fill="#FFFFFF"/>
      <path id="svg_94" d="m0.495,-18.084c0.018,0.072 0.007,0.127 -0.026,0.19c-0.053,0.101 -0.112,0.062 -0.165,0.128c-0.05,0.062 -0.099,0.276 -0.079,0.362c-0.169,0.058 -0.01,0.226 -0.015,0.35c-0.002,0.05 -0.041,0.105 -0.045,0.161c-0.01,0.119 0.017,0.266 0.068,0.37c0.097,0.198 0.268,0.413 0.435,0.544c0.19,0.148 0.365,0.572 0.608,0.631c0.177,0.042 0.384,-0.104 0.543,-0.142c0.18,-0.043 0.397,0.01 0.571,-0.053c0.222,-0.079 0.127,-0.337 0.288,-0.45c0.104,-0.074 0.287,-0.01 0.406,-0.051c0.2,-0.069 0.339,-0.263 0.376,-0.46c0.016,-0.082 0.01,-0.144 0.039,-0.221c0.039,-0.103 0.111,-0.16 0.09,-0.293c-0.01,-0.062 -0.052,-0.12 -0.064,-0.187c-0.022,-0.114 0.002,-0.224 0,-0.337c-0.003,-0.2 0.017,-0.379 -0.078,-0.55c-0.38,-0.688 -1.236,-0.929 -1.975,-0.789c-0.18,0.034 -0.287,0.126 -0.442,0.207c-0.17,0.088 -0.139,0.166 -0.318,0.224c-0.081,0.026 -0.216,0.124 -0.215,0.224c0.003,0.116 0.006,0.051 0.013,0.169c-0.021,0.011 -0.021,-0.005 -0.03,-0.025" fill="#FFFFFF"/>
     </g>
     <g id="svg_95">
      <path id="svg_96" d="m69.439,-10.431c0.017,0.072 0.007,0.127 -0.026,0.191c-0.053,0.101 -0.112,0.062 -0.165,0.128c-0.05,0.062 -0.099,0.276 -0.079,0.362c-0.169,0.058 -0.01,0.227 -0.015,0.35c-0.002,0.05 -0.041,0.105 -0.045,0.161c-0.01,0.119 0.017,0.266 0.068,0.37c0.097,0.198 0.268,0.413 0.435,0.544c0.19,0.148 0.365,0.572 0.608,0.631c0.177,0.042 0.384,-0.104 0.543,-0.143c0.18,-0.043 0.397,0.01 0.571,-0.053c0.222,-0.079 0.127,-0.337 0.288,-0.45c0.104,-0.074 0.287,-0.01 0.406,-0.051c0.2,-0.069 0.339,-0.263 0.376,-0.46c0.016,-0.082 0.01,-0.145 0.039,-0.221c0.039,-0.103 0.111,-0.16 0.09,-0.293c-0.01,-0.062 -0.052,-0.12 -0.064,-0.187c-0.022,-0.114 0.002,-0.224 0.001,-0.337c-0.003,-0.2 0.017,-0.379 -0.078,-0.55c-0.38,-0.688 -1.236,-0.929 -1.975,-0.789c-0.18,0.034 -0.287,0.126 -0.442,0.207c-0.17,0.088 -0.139,0.166 -0.318,0.224c-0.081,0.026 -0.216,0.124 -0.215,0.224c0.001,0.115 0.005,0.051 0.012,0.169c-0.021,0.011 -0.021,-0.005 -0.03,-0.025" fill="#FFFFFF"/>
      <path id="svg_97" d="m61.778,-10.431c0.018,0.072 0.007,0.127 -0.026,0.191c-0.053,0.101 -0.112,0.062 -0.165,0.128c-0.05,0.062 -0.099,0.276 -0.079,0.362c-0.169,0.058 -0.009,0.227 -0.015,0.35c-0.002,0.05 -0.041,0.105 -0.045,0.161c-0.01,0.119 0.017,0.266 0.068,0.37c0.097,0.198 0.268,0.413 0.435,0.544c0.19,0.148 0.365,0.572 0.608,0.631c0.177,0.042 0.384,-0.104 0.543,-0.143c0.18,-0.043 0.397,0.01 0.571,-0.053c0.222,-0.079 0.127,-0.337 0.288,-0.45c0.104,-0.074 0.287,-0.01 0.406,-0.051c0.2,-0.069 0.339,-0.263 0.376,-0.46c0.016,-0.082 0.01,-0.145 0.039,-0.221c0.039,-0.103 0.111,-0.16 0.09,-0.293c-0.01,-0.062 -0.052,-0.12 -0.064,-0.187c-0.022,-0.114 0.002,-0.224 0,-0.337c-0.003,-0.2 0.017,-0.379 -0.078,-0.55c-0.38,-0.688 -1.236,-0.929 -1.975,-0.789c-0.18,0.034 -0.287,0.126 -0.442,0.207c-0.17,0.088 -0.139,0.166 -0.318,0.224c-0.081,0.026 -0.216,0.124 -0.215,0.224c0.001,0.115 0.005,0.051 0.012,0.169c-0.021,0.011 -0.021,-0.005 -0.03,-0.025" fill="#FFFFFF"/>
      <path id="svg_98" d="m54.118,-10.431c0.018,0.072 0.007,0.127 -0.026,0.191c-0.053,0.101 -0.112,0.062 -0.165,0.128c-0.05,0.062 -0.099,0.276 -0.079,0.362c-0.169,0.058 -0.009,0.227 -0.015,0.35c-0.002,0.05 -0.041,0.105 -0.045,0.161c-0.01,0.119 0.017,0.266 0.068,0.37c0.097,0.198 0.268,0.413 0.435,0.544c0.19,0.148 0.365,0.572 0.608,0.631c0.177,0.042 0.384,-0.104 0.543,-0.143c0.18,-0.043 0.397,0.01 0.571,-0.053c0.222,-0.079 0.127,-0.337 0.288,-0.45c0.104,-0.074 0.287,-0.01 0.406,-0.051c0.2,-0.069 0.339,-0.263 0.376,-0.46c0.016,-0.082 0.01,-0.145 0.039,-0.221c0.038,-0.103 0.111,-0.16 0.09,-0.293c-0.01,-0.062 -0.052,-0.12 -0.064,-0.187c-0.022,-0.114 0.002,-0.224 0,-0.337c-0.003,-0.2 0.017,-0.379 -0.078,-0.55c-0.38,-0.688 -1.236,-0.929 -1.975,-0.789c-0.18,0.034 -0.287,0.126 -0.442,0.207c-0.17,0.088 -0.139,0.166 -0.318,0.224c-0.081,0.026 -0.216,0.124 -0.215,0.224c0.001,0.115 0.005,0.051 0.012,0.169c-0.021,0.011 -0.021,-0.005 -0.03,-0.025" fill="#FFFFFF"/>
      <path id="svg_99" d="m46.458,-10.431c0.018,0.072 0.007,0.127 -0.026,0.191c-0.053,0.101 -0.112,0.062 -0.165,0.128c-0.05,0.062 -0.099,0.276 -0.079,0.362c-0.169,0.058 -0.009,0.227 -0.015,0.35c-0.003,0.05 -0.041,0.105 -0.045,0.161c-0.01,0.119 0.017,0.266 0.068,0.37c0.097,0.198 0.268,0.413 0.435,0.544c0.19,0.148 0.365,0.572 0.608,0.631c0.177,0.042 0.384,-0.104 0.543,-0.143c0.18,-0.043 0.397,0.01 0.571,-0.053c0.222,-0.079 0.127,-0.337 0.288,-0.45c0.104,-0.074 0.287,-0.01 0.406,-0.051c0.2,-0.069 0.339,-0.263 0.376,-0.46c0.016,-0.082 0.01,-0.145 0.039,-0.221c0.039,-0.103 0.111,-0.16 0.09,-0.293c-0.01,-0.062 -0.052,-0.12 -0.064,-0.187c-0.022,-0.114 0.002,-0.224 0,-0.337c-0.003,-0.2 0.017,-0.379 -0.078,-0.55c-0.38,-0.688 -1.236,-0.929 -1.975,-0.789c-0.18,0.034 -0.287,0.126 -0.442,0.207c-0.17,0.088 -0.139,0.166 -0.318,0.224c-0.081,0.026 -0.216,0.124 -0.215,0.224c0.001,0.115 0.005,0.051 0.012,0.169c-0.021,0.011 -0.021,-0.005 -0.03,-0.025" fill="#FFFFFF"/>
      <path id="svg_100" d="m38.797,-10.431c0.017,0.072 0.007,0.127 -0.026,0.191c-0.053,0.101 -0.112,0.062 -0.165,0.128c-0.05,0.062 -0.099,0.276 -0.079,0.362c-0.169,0.058 -0.009,0.227 -0.015,0.35c-0.002,0.05 -0.041,0.105 -0.045,0.161c-0.01,0.119 0.017,0.266 0.068,0.37c0.097,0.198 0.268,0.413 0.435,0.544c0.19,0.148 0.365,0.572 0.608,0.631c0.177,0.042 0.384,-0.104 0.543,-0.143c0.18,-0.043 0.397,0.01 0.571,-0.053c0.222,-0.079 0.127,-0.337 0.288,-0.45c0.104,-0.074 0.287,-0.01 0.406,-0.051c0.2,-0.069 0.339,-0.263 0.376,-0.46c0.016,-0.082 0.01,-0.145 0.039,-0.221c0.039,-0.103 0.111,-0.16 0.09,-0.293c-0.01,-0.062 -0.052,-0.12 -0.065,-0.187c-0.022,-0.114 0.002,-0.224 0,-0.337c-0.003,-0.2 0.017,-0.379 -0.078,-0.55c-0.38,-0.688 -1.236,-0.929 -1.975,-0.789c-0.18,0.034 -0.287,0.126 -0.442,0.207c-0.17,0.088 -0.139,0.166 -0.318,0.224c-0.081,0.026 -0.216,0.124 -0.215,0.224c0.001,0.115 0.005,0.051 0.012,0.169c-0.021,0.011 -0.021,-0.005 -0.03,-0.025" fill="#FFFFFF"/>
      <path id="svg_101" d="m31.137,-10.431c0.018,0.072 0.007,0.127 -0.026,0.191c-0.053,0.101 -0.112,0.062 -0.165,0.128c-0.05,0.062 -0.099,0.276 -0.079,0.362c-0.169,0.058 -0.009,0.227 -0.015,0.35c-0.003,0.05 -0.041,0.105 -0.045,0.161c-0.01,0.119 0.017,0.266 0.068,0.37c0.097,0.198 0.268,0.413 0.435,0.544c0.19,0.148 0.365,0.572 0.608,0.631c0.177,0.042 0.384,-0.104 0.543,-0.143c0.18,-0.043 0.397,0.01 0.571,-0.053c0.222,-0.079 0.127,-0.337 0.288,-0.45c0.104,-0.074 0.287,-0.01 0.406,-0.051c0.2,-0.069 0.339,-0.263 0.376,-0.46c0.016,-0.082 0.01,-0.145 0.039,-0.221c0.039,-0.103 0.111,-0.16 0.09,-0.293c-0.01,-0.062 -0.052,-0.12 -0.064,-0.187c-0.022,-0.114 0.002,-0.224 0,-0.337c-0.003,-0.2 0.017,-0.379 -0.078,-0.55c-0.38,-0.688 -1.236,-0.929 -1.975,-0.789c-0.18,0.034 -0.287,0.126 -0.442,0.207c-0.17,0.088 -0.139,0.166 -0.318,0.224c-0.081,0.026 -0.216,0.124 -0.215,0.224c0.001,0.115 0.005,0.051 0.012,0.169c-0.021,0.011 -0.021,-0.005 -0.03,-0.025" fill="#FFFFFF"/>
      <path id="svg_102" d="m23.477,-10.431c0.017,0.072 0.007,0.127 -0.026,0.191c-0.053,0.101 -0.112,0.062 -0.165,0.128c-0.05,0.062 -0.099,0.276 -0.079,0.362c-0.169,0.058 -0.009,0.227 -0.015,0.35c-0.002,0.05 -0.041,0.105 -0.045,0.161c-0.01,0.119 0.017,0.266 0.068,0.37c0.097,0.198 0.268,0.413 0.435,0.544c0.19,0.148 0.365,0.572 0.608,0.631c0.177,0.042 0.384,-0.104 0.543,-0.143c0.18,-0.043 0.397,0.01 0.571,-0.053c0.222,-0.079 0.127,-0.337 0.288,-0.45c0.104,-0.074 0.287,-0.01 0.406,-0.051c0.2,-0.069 0.339,-0.263 0.376,-0.46c0.016,-0.082 0.01,-0.145 0.039,-0.221c0.038,-0.103 0.111,-0.16 0.09,-0.293c-0.01,-0.062 -0.052,-0.12 -0.065,-0.187c-0.022,-0.114 0.002,-0.224 0,-0.337c-0.003,-0.2 0.017,-0.379 -0.078,-0.55c-0.38,-0.688 -1.236,-0.929 -1.975,-0.789c-0.18,0.034 -0.287,0.126 -0.442,0.207c-0.17,0.088 -0.139,0.166 -0.318,0.224c-0.081,0.026 -0.216,0.124 -0.215,0.224c0.002,0.115 0.005,0.051 0.012,0.169c-0.021,0.011 -0.021,-0.005 -0.03,-0.025" fill="#FFFFFF"/>
      <path id="svg_103" d="m15.816,-10.431c0.018,0.072 0.007,0.127 -0.026,0.191c-0.053,0.101 -0.112,0.062 -0.165,0.128c-0.05,0.062 -0.099,0.276 -0.079,0.362c-0.169,0.058 -0.009,0.227 -0.015,0.35c-0.002,0.05 -0.041,0.105 -0.045,0.161c-0.01,0.119 0.017,0.266 0.068,0.37c0.097,0.198 0.268,0.413 0.435,0.544c0.19,0.148 0.365,0.572 0.608,0.631c0.177,0.042 0.384,-0.104 0.543,-0.143c0.18,-0.043 0.397,0.01 0.571,-0.053c0.222,-0.079 0.128,-0.337 0.289,-0.45c0.104,-0.074 0.287,-0.01 0.406,-0.051c0.2,-0.069 0.339,-0.263 0.376,-0.46c0.016,-0.082 0.01,-0.145 0.039,-0.221c0.039,-0.103 0.111,-0.16 0.09,-0.293c-0.01,-0.062 -0.052,-0.12 -0.064,-0.187c-0.022,-0.114 0.002,-0.224 0,-0.337c-0.003,-0.2 0.017,-0.379 -0.078,-0.55c-0.38,-0.688 -1.236,-0.929 -1.975,-0.789c-0.18,0.034 -0.287,0.126 -0.442,0.207c-0.17,0.088 -0.139,0.166 -0.318,0.224c-0.081,0.026 -0.216,0.124 -0.215,0.224c0.002,0.115 0.005,0.051 0.012,0.169c-0.021,0.011 -0.021,-0.005 -0.03,-0.025" fill="#FFFFFF"/>
      <path id="svg_104" d="m8.156,-10.431c0.018,0.072 0.007,0.127 -0.026,0.191c-0.053,0.101 -0.112,0.062 -0.165,0.128c-0.05,0.062 -0.099,0.276 -0.079,0.362c-0.169,0.058 -0.01,0.227 -0.015,0.35c-0.003,0.049 -0.041,0.105 -0.045,0.161c-0.01,0.119 0.017,0.266 0.068,0.37c0.097,0.198 0.268,0.413 0.435,0.544c0.19,0.148 0.365,0.572 0.608,0.631c0.177,0.042 0.384,-0.105 0.543,-0.143c0.18,-0.043 0.397,0.01 0.571,-0.053c0.222,-0.079 0.127,-0.337 0.288,-0.45c0.104,-0.074 0.287,-0.01 0.406,-0.051c0.2,-0.069 0.339,-0.263 0.376,-0.46c0.016,-0.082 0.01,-0.145 0.039,-0.221c0.038,-0.103 0.111,-0.16 0.09,-0.293c-0.01,-0.062 -0.052,-0.12 -0.064,-0.187c-0.022,-0.114 0.002,-0.224 0,-0.337c-0.003,-0.2 0.017,-0.379 -0.078,-0.55c-0.38,-0.688 -1.236,-0.929 -1.975,-0.789c-0.18,0.034 -0.287,0.126 -0.442,0.207c-0.17,0.088 -0.139,0.166 -0.318,0.224c-0.081,0.026 -0.216,0.124 -0.215,0.224c0.001,0.115 0.005,0.051 0.012,0.169c-0.021,0.011 -0.021,-0.005 -0.03,-0.025" fill="#FFFFFF"/>
      <path id="svg_105" d="m0.495,-10.431c0.018,0.072 0.007,0.127 -0.026,0.191c-0.053,0.101 -0.112,0.062 -0.165,0.128c-0.05,0.062 -0.099,0.276 -0.079,0.362c-0.169,0.058 -0.01,0.227 -0.015,0.35c-0.002,0.05 -0.041,0.105 -0.045,0.161c-0.01,0.119 0.017,0.266 0.068,0.37c0.097,0.198 0.268,0.413 0.435,0.544c0.19,0.148 0.365,0.572 0.608,0.631c0.178,0.042 0.384,-0.105 0.543,-0.143c0.181,-0.043 0.398,0.01 0.572,-0.053c0.222,-0.079 0.127,-0.337 0.288,-0.45c0.104,-0.074 0.287,-0.01 0.406,-0.051c0.2,-0.069 0.339,-0.263 0.376,-0.46c0.016,-0.082 0.01,-0.144 0.039,-0.22c0.039,-0.103 0.111,-0.16 0.09,-0.293c-0.01,-0.062 -0.052,-0.12 -0.064,-0.187c-0.022,-0.114 0.002,-0.224 0,-0.337c-0.003,-0.2 0.017,-0.379 -0.078,-0.55c-0.38,-0.688 -1.236,-0.929 -1.975,-0.789c-0.18,0.034 -0.287,0.126 -0.442,0.207c-0.17,0.088 -0.139,0.166 -0.318,0.224c-0.081,0.026 -0.216,0.124 -0.215,0.224c0.001,0.115 0.005,0.051 0.012,0.169c-0.021,0.011 -0.021,-0.005 -0.03,-0.025" fill="#FFFFFF"/>
     </g>
    </g>
    <g id="svg_106">
     <path id="svg_107" d="m69.439,-2.778c0.017,0.072 0.008,0.127 -0.026,0.19c-0.052,0.101 -0.113,0.063 -0.165,0.128c-0.051,0.062 -0.099,0.276 -0.079,0.362c-0.169,0.058 -0.01,0.227 -0.015,0.35c-0.002,0.05 -0.041,0.105 -0.045,0.161c-0.01,0.119 0.017,0.266 0.068,0.37c0.097,0.198 0.268,0.413 0.435,0.544c0.19,0.148 0.365,0.572 0.608,0.631c0.177,0.042 0.384,-0.104 0.543,-0.143c0.18,-0.043 0.397,0.01 0.571,-0.053c0.222,-0.079 0.127,-0.337 0.288,-0.45c0.104,-0.074 0.287,-0.01 0.406,-0.051c0.2,-0.07 0.339,-0.263 0.376,-0.46c0.016,-0.082 0.01,-0.145 0.039,-0.221c0.038,-0.103 0.111,-0.16 0.09,-0.293c-0.01,-0.062 -0.051,-0.12 -0.064,-0.187c-0.021,-0.114 0.002,-0.224 0.001,-0.337c-0.003,-0.2 0.017,-0.379 -0.078,-0.55c-0.38,-0.688 -1.236,-0.929 -1.975,-0.789c-0.18,0.034 -0.287,0.126 -0.442,0.207c-0.17,0.088 -0.139,0.166 -0.318,0.224c-0.081,0.026 -0.215,0.124 -0.215,0.224c0.002,0.115 0.005,0.051 0.012,0.169c-0.021,0.011 -0.021,-0.005 -0.03,-0.025" fill="#FFFFFF"/>
     <path id="svg_108" d="m61.778,-2.778c0.018,0.072 0.007,0.127 -0.026,0.19c-0.052,0.101 -0.112,0.063 -0.165,0.128c-0.05,0.062 -0.099,0.276 -0.079,0.362c-0.169,0.058 -0.01,0.227 -0.015,0.35c-0.002,0.05 -0.041,0.105 -0.045,0.161c-0.01,0.119 0.017,0.266 0.068,0.37c0.097,0.198 0.268,0.413 0.435,0.544c0.19,0.148 0.365,0.572 0.608,0.631c0.178,0.042 0.384,-0.104 0.544,-0.143c0.18,-0.043 0.397,0.01 0.571,-0.053c0.222,-0.079 0.127,-0.337 0.288,-0.45c0.104,-0.074 0.287,-0.01 0.406,-0.051c0.2,-0.069 0.339,-0.263 0.376,-0.46c0.016,-0.082 0.01,-0.145 0.039,-0.221c0.039,-0.103 0.111,-0.16 0.09,-0.293c-0.01,-0.062 -0.052,-0.12 -0.064,-0.187c-0.022,-0.114 0.002,-0.224 0,-0.337c-0.003,-0.2 0.017,-0.379 -0.078,-0.55c-0.38,-0.688 -1.236,-0.929 -1.975,-0.789c-0.18,0.034 -0.287,0.126 -0.442,0.207c-0.17,0.088 -0.139,0.166 -0.318,0.224c-0.081,0.028 -0.216,0.125 -0.215,0.225c0.001,0.115 0.005,0.051 0.012,0.169c-0.021,0.011 -0.021,-0.005 -0.03,-0.025" fill="#FFFFFF"/>
     <path id="svg_109" d="m54.118,-2.778c0.018,0.072 0.007,0.127 -0.026,0.19c-0.052,0.101 -0.112,0.063 -0.165,0.128c-0.05,0.062 -0.099,0.276 -0.079,0.362c-0.169,0.058 -0.01,0.227 -0.015,0.35c-0.002,0.05 -0.041,0.105 -0.045,0.161c-0.01,0.119 0.017,0.266 0.068,0.37c0.097,0.198 0.268,0.413 0.435,0.544c0.19,0.148 0.365,0.572 0.608,0.631c0.178,0.042 0.384,-0.104 0.543,-0.143c0.18,-0.043 0.397,0.01 0.571,-0.053c0.222,-0.079 0.127,-0.337 0.288,-0.45c0.104,-0.074 0.287,-0.01 0.406,-0.051c0.2,-0.069 0.339,-0.263 0.376,-0.46c0.016,-0.082 0.01,-0.145 0.039,-0.221c0.038,-0.103 0.111,-0.16 0.09,-0.293c-0.01,-0.062 -0.052,-0.12 -0.064,-0.187c-0.022,-0.114 0.002,-0.224 0,-0.337c-0.003,-0.2 0.017,-0.379 -0.078,-0.55c-0.38,-0.688 -1.236,-0.929 -1.975,-0.789c-0.18,0.034 -0.287,0.126 -0.442,0.207c-0.17,0.088 -0.139,0.166 -0.318,0.224c-0.08,0.028 -0.215,0.125 -0.214,0.225c0.001,0.115 0.005,0.051 0.012,0.169c-0.021,0.011 -0.021,-0.005 -0.03,-0.025" fill="#FFFFFF"/>
     <path id="svg_110" d="m46.458,-2.778c0.018,0.072 0.007,0.127 -0.026,0.19c-0.053,0.101 -0.112,0.062 -0.165,0.128c-0.05,0.062 -0.099,0.276 -0.079,0.362c-0.169,0.058 -0.01,0.227 -0.015,0.35c-0.003,0.05 -0.041,0.105 -0.045,0.161c-0.01,0.119 0.017,0.266 0.068,0.37c0.097,0.198 0.268,0.413 0.435,0.544c0.19,0.148 0.365,0.572 0.608,0.631c0.177,0.042 0.384,-0.104 0.543,-0.143c0.18,-0.043 0.397,0.01 0.571,-0.053c0.222,-0.079 0.127,-0.337 0.288,-0.45c0.104,-0.074 0.287,-0.01 0.406,-0.051c0.2,-0.069 0.339,-0.263 0.376,-0.46c0.016,-0.082 0.01,-0.145 0.039,-0.221c0.039,-0.103 0.111,-0.16 0.09,-0.293c-0.01,-0.062 -0.052,-0.12 -0.064,-0.187c-0.022,-0.114 0.002,-0.224 0,-0.337c-0.003,-0.2 0.017,-0.379 -0.078,-0.55c-0.38,-0.688 -1.236,-0.929 -1.975,-0.789c-0.18,0.034 -0.287,0.126 -0.442,0.207c-0.17,0.088 -0.139,0.166 -0.318,0.224c-0.081,0.028 -0.216,0.125 -0.215,0.225c0.001,0.115 0.005,0.051 0.012,0.169c-0.021,0.011 -0.021,-0.005 -0.03,-0.025" fill="#FFFFFF"/>
     <path id="svg_111" d="m38.797,-2.778c0.017,0.072 0.007,0.127 -0.026,0.19c-0.053,0.101 -0.112,0.062 -0.165,0.128c-0.05,0.062 -0.099,0.276 -0.079,0.362c-0.169,0.058 -0.01,0.227 -0.015,0.35c-0.002,0.05 -0.041,0.105 -0.045,0.161c-0.01,0.119 0.017,0.266 0.068,0.37c0.097,0.198 0.268,0.413 0.435,0.544c0.19,0.148 0.365,0.572 0.608,0.631c0.178,0.042 0.384,-0.104 0.544,-0.143c0.18,-0.043 0.397,0.01 0.571,-0.053c0.222,-0.079 0.127,-0.337 0.288,-0.45c0.104,-0.074 0.287,-0.01 0.406,-0.051c0.2,-0.069 0.339,-0.263 0.376,-0.46c0.016,-0.082 0.01,-0.145 0.039,-0.221c0.039,-0.103 0.111,-0.16 0.09,-0.293c-0.01,-0.062 -0.052,-0.12 -0.065,-0.187c-0.022,-0.114 0.002,-0.224 0,-0.337c-0.003,-0.2 0.017,-0.379 -0.078,-0.55c-0.38,-0.688 -1.236,-0.929 -1.975,-0.789c-0.18,0.034 -0.287,0.126 -0.442,0.207c-0.17,0.088 -0.139,0.166 -0.318,0.224c-0.08,0.028 -0.215,0.125 -0.214,0.225c0.001,0.115 0.005,0.051 0.012,0.169c-0.021,0.011 -0.021,-0.005 -0.03,-0.025" fill="#FFFFFF"/>
     <path id="svg_112" d="m31.137,-2.778c0.018,0.072 0.007,0.127 -0.026,0.19c-0.053,0.101 -0.112,0.062 -0.165,0.128c-0.05,0.062 -0.099,0.276 -0.079,0.362c-0.169,0.058 -0.01,0.227 -0.015,0.35c-0.003,0.05 -0.041,0.105 -0.045,0.161c-0.01,0.119 0.017,0.266 0.068,0.37c0.097,0.198 0.268,0.413 0.435,0.544c0.19,0.148 0.365,0.572 0.608,0.631c0.177,0.042 0.384,-0.104 0.543,-0.143c0.18,-0.043 0.397,0.01 0.571,-0.053c0.222,-0.079 0.127,-0.337 0.288,-0.45c0.104,-0.074 0.287,-0.01 0.406,-0.051c0.2,-0.069 0.339,-0.263 0.376,-0.46c0.016,-0.082 0.01,-0.145 0.039,-0.221c0.039,-0.103 0.111,-0.16 0.09,-0.293c-0.01,-0.062 -0.052,-0.12 -0.064,-0.187c-0.022,-0.114 0.002,-0.224 0,-0.337c-0.003,-0.2 0.017,-0.379 -0.078,-0.55c-0.38,-0.688 -1.236,-0.929 -1.975,-0.789c-0.18,0.034 -0.287,0.126 -0.442,0.207c-0.17,0.088 -0.139,0.166 -0.318,0.224c-0.081,0.028 -0.215,0.125 -0.214,0.225c0.001,0.115 0.005,0.051 0.012,0.169c-0.021,0.011 -0.021,-0.005 -0.03,-0.025" fill="#FFFFFF"/>
     <path id="svg_113" d="m23.477,-2.778c0.017,0.072 0.007,0.127 -0.026,0.19c-0.053,0.101 -0.112,0.062 -0.165,0.128c-0.05,0.062 -0.099,0.276 -0.079,0.362c-0.169,0.058 -0.01,0.227 -0.015,0.35c-0.002,0.05 -0.041,0.105 -0.045,0.161c-0.01,0.119 0.017,0.266 0.068,0.37c0.097,0.198 0.268,0.413 0.435,0.544c0.19,0.148 0.365,0.572 0.608,0.631c0.177,0.042 0.384,-0.104 0.543,-0.143c0.18,-0.043 0.397,0.01 0.571,-0.053c0.222,-0.079 0.127,-0.337 0.288,-0.45c0.104,-0.074 0.287,-0.01 0.406,-0.051c0.2,-0.069 0.339,-0.263 0.376,-0.46c0.016,-0.082 0.01,-0.145 0.039,-0.221c0.038,-0.103 0.111,-0.16 0.09,-0.293c-0.01,-0.062 -0.052,-0.12 -0.065,-0.187c-0.022,-0.114 0.002,-0.224 0,-0.337c-0.003,-0.2 0.017,-0.379 -0.078,-0.55c-0.38,-0.688 -1.236,-0.929 -1.975,-0.789c-0.18,0.034 -0.287,0.126 -0.442,0.207c-0.17,0.088 -0.139,0.166 -0.318,0.224c-0.081,0.026 -0.216,0.124 -0.215,0.224c0.002,0.115 0.005,0.051 0.012,0.169c-0.021,0.011 -0.021,-0.005 -0.03,-0.025" fill="#FFFFFF"/>
     <path id="svg_114" d="m15.816,-2.778c0.018,0.072 0.007,0.127 -0.026,0.19c-0.053,0.101 -0.112,0.062 -0.165,0.128c-0.05,0.062 -0.099,0.276 -0.079,0.362c-0.169,0.058 -0.01,0.227 -0.015,0.35c-0.002,0.05 -0.041,0.105 -0.045,0.161c-0.01,0.119 0.017,0.266 0.068,0.37c0.097,0.198 0.268,0.413 0.435,0.544c0.19,0.148 0.365,0.572 0.608,0.631c0.177,0.042 0.384,-0.104 0.543,-0.143c0.18,-0.043 0.397,0.01 0.571,-0.053c0.222,-0.079 0.128,-0.337 0.288,-0.45c0.104,-0.074 0.287,-0.01 0.406,-0.051c0.2,-0.069 0.339,-0.263 0.376,-0.46c0.016,-0.082 0.01,-0.145 0.039,-0.221c0.039,-0.103 0.111,-0.16 0.09,-0.293c-0.01,-0.062 -0.052,-0.12 -0.064,-0.187c-0.022,-0.114 0.002,-0.224 0,-0.337c-0.003,-0.2 0.017,-0.379 -0.078,-0.55c-0.38,-0.688 -1.236,-0.929 -1.975,-0.789c-0.18,0.034 -0.287,0.126 -0.442,0.207c-0.17,0.088 -0.139,0.166 -0.318,0.224c-0.081,0.026 -0.216,0.124 -0.215,0.224c0.002,0.115 0.005,0.051 0.012,0.169c-0.02,0.012 -0.021,-0.004 -0.03,-0.024" fill="#FFFFFF"/>
     <path id="svg_115" d="m8.156,-2.778c0.018,0.072 0.007,0.127 -0.026,0.19c-0.053,0.101 -0.112,0.063 -0.165,0.128c-0.05,0.062 -0.099,0.276 -0.079,0.362c-0.169,0.058 -0.01,0.227 -0.015,0.35c-0.003,0.05 -0.041,0.105 -0.045,0.161c-0.01,0.119 0.017,0.266 0.068,0.37c0.097,0.198 0.268,0.413 0.435,0.544c0.19,0.148 0.365,0.572 0.608,0.631c0.177,0.042 0.384,-0.104 0.543,-0.143c0.18,-0.043 0.397,0.01 0.571,-0.053c0.222,-0.079 0.127,-0.337 0.288,-0.45c0.104,-0.074 0.287,-0.01 0.406,-0.051c0.2,-0.069 0.339,-0.263 0.376,-0.46c0.016,-0.082 0.01,-0.145 0.039,-0.221c0.038,-0.103 0.111,-0.16 0.09,-0.293c-0.01,-0.062 -0.052,-0.12 -0.064,-0.187c-0.022,-0.114 0.002,-0.224 0,-0.337c-0.003,-0.2 0.017,-0.379 -0.078,-0.55c-0.38,-0.688 -1.236,-0.929 -1.975,-0.789c-0.179,0.036 -0.286,0.128 -0.441,0.209c-0.17,0.088 -0.139,0.166 -0.318,0.224c-0.082,0.026 -0.216,0.123 -0.215,0.223c0.001,0.115 0.005,0.051 0.011,0.169c-0.02,0.011 -0.021,-0.005 -0.03,-0.025" fill="#FFFFFF"/>
     <path id="svg_116" d="m0.495,-2.778c0.018,0.072 0.008,0.127 -0.026,0.19c-0.052,0.101 -0.113,0.063 -0.165,0.128c-0.051,0.063 -0.099,0.276 -0.079,0.362c-0.169,0.058 -0.01,0.227 -0.015,0.35c-0.002,0.05 -0.041,0.105 -0.045,0.161c-0.01,0.119 0.017,0.266 0.068,0.37c0.097,0.198 0.268,0.413 0.435,0.544c0.19,0.148 0.365,0.572 0.608,0.631c0.178,0.042 0.384,-0.104 0.543,-0.143c0.181,-0.043 0.398,0.01 0.572,-0.052c0.222,-0.079 0.127,-0.337 0.288,-0.45c0.104,-0.074 0.287,-0.01 0.406,-0.051c0.2,-0.07 0.339,-0.263 0.376,-0.46c0.016,-0.082 0.01,-0.145 0.039,-0.221c0.038,-0.103 0.111,-0.16 0.09,-0.293c-0.01,-0.062 -0.051,-0.12 -0.064,-0.187c-0.021,-0.114 0.002,-0.224 0,-0.337c-0.003,-0.2 0.017,-0.379 -0.078,-0.55c-0.38,-0.688 -1.236,-0.929 -1.975,-0.789c-0.18,0.035 -0.286,0.127 -0.442,0.208c-0.17,0.088 -0.139,0.166 -0.318,0.224c-0.081,0.026 -0.215,0.123 -0.215,0.223c0.002,0.115 0.005,0.051 0.012,0.169c-0.021,0.011 -0.022,-0.005 -0.031,-0.025" fill="#FFFFFF"/>
    </g>
   </g>
  </pattern>
 </defs>
 <g>
  <title>background</title>
  <rect fill="none" id="canvas_background" height="402" width="582" y="-1" x="-1"/>
 </g>
 <g>
  <title>Layer 1</title>
  <text x="0" y="0" id="svg_117" font-size="75.0222px" font-family="'HouseMovements-Runway'" transform="matrix(1.7800547235100335,-0.0013663525010039754,0.0011926366647517224,2.0393320910507096,5.580923060406039,215.87631595217036) ">TRICK 3D</text>
 </g>
</svg>