<?xml version="1.0" standalone="no"?>
<!DOCTYPE svg PUBLIC "-//W3C//DTD SVG 20010904//EN"
 "http://www.w3.org/TR/2001/REC-SVG-20010904/DTD/svg10.dtd">
<svg version="1.0" xmlns="http://www.w3.org/2000/svg"
 width="542.000000pt" height="55.000000pt" viewBox="0 0 542.000000 55.000000"
 preserveAspectRatio="xMidYMid meet">
<metadata>
Created by potrace 1.15, written by Peter Selinger 2001-2017
</metadata>
<g transform="translate(0.000000,55.000000) scale(0.100000,-0.100000)"
fill="#000000" stroke="none">
<path d="M0 525 l0 -25 150 0 150 0 0 -235 0 -235 31 0 30 0 -3 235 -3 235
155 2 c152 3 155 3 158 26 l3 22 -335 0 -336 0 0 -25z"/>
<path d="M810 290 l0 -260 30 0 30 0 0 105 0 105 172 0 173 0 105 -104 c85
-84 112 -105 143 -110 20 -4 37 -3 37 2 0 5 -47 55 -104 110 l-104 100 53 7
c71 8 116 40 131 90 29 95 8 165 -58 195 -39 18 -67 20 -325 20 l-283 0 0
-260z m596 178 c32 -31 36 -93 10 -132 -25 -39 -73 -46 -318 -46 l-228 0 0
105 0 106 255 -3 255 -3 26 -27z"/>
<path d="M1700 290 l0 -260 30 0 30 0 0 260 0 260 -30 0 -30 0 0 -260z"/>
<path d="M2106 535 c-95 -34 -131 -107 -124 -252 6 -108 21 -157 64 -197 52
-48 104 -56 361 -56 l233 0 0 24 0 25 -242 3 c-223 3 -246 5 -282 24 -61 32
-80 78 -81 195 0 106 9 129 69 173 26 20 45 21 279 26 252 5 252 5 255 28 l3
22 -248 0 c-184 -1 -258 -4 -287 -15z"/>
<path d="M2840 290 l0 -260 31 0 32 0 -5 83 -5 82 61 37 c33 19 77 45 97 57
l36 21 174 -138 c144 -115 181 -140 217 -146 23 -3 42 -3 42 1 -1 9 -334 274
-361 287 -10 5 -19 12 -19 17 0 7 268 172 325 199 l30 15 -48 3 c-46 3 -58 -3
-295 -142 l-247 -145 -3 144 -3 145 -29 0 -30 0 0 -260z"/>
<path d="M3900 525 l0 -25 266 0 c310 0 323 -3 324 -78 0 -22 -8 -41 -25 -57
l-24 -25 -216 0 -216 0 3 -27 3 -28 215 -5 c148 -3 222 -9 237 -18 29 -16 38
-52 27 -105 -15 -73 -34 -77 -341 -77 l-263 0 0 -26 0 -25 283 3 c250 3 286 5
315 21 46 25 77 94 68 151 -10 61 -30 85 -77 92 l-42 7 44 21 c36 17 47 29 59
63 13 38 13 48 0 84 -27 76 -42 79 -362 79 l-278 0 0 -25z"/>
<path d="M4730 289 l0 -260 268 3 c297 4 313 7 370 72 48 55 69 211 41 311
-14 51 -73 110 -124 124 -24 7 -140 11 -297 11 l-258 0 0 -261z m550 194 c69
-34 85 -69 84 -183 0 -113 -18 -158 -73 -192 -34 -22 -47 -23 -268 -26 l-233
-3 0 184 c0 102 -3 199 -6 217 l-7 32 229 -4 c213 -3 232 -5 274 -25z"/>
</g>
</svg>
